<?xml version="1.0" encoding="UTF-8"?>
<svg xmlns="http://www.w3.org/2000/svg" xmlns:xlink="http://www.w3.org/1999/xlink" width="300px" height="226px" viewBox="0 0 299 226" version="1.1">
<g id="surface1">
<path style=" stroke:none;fill-rule:nonzero;fill:rgb(88.627451%,51.372549%,38.431373%);fill-opacity:1;" d="M 177.464844 96.207031 C 177.464844 96.207031 163.917969 78.214844 162.066406 71.972656 L 156.878906 76.335938 C 156.878906 76.335938 161.191406 90.054688 167.082031 98.636719 C 172.972656 107.21875 181.441406 114.5 181.441406 114.5 Z M 177.464844 96.207031 "/>
<path style=" stroke:none;fill-rule:nonzero;fill:rgb(3.529412%,24.705882%,40.784314%);fill-opacity:1;" d="M 181.441406 115.25 C 181.261719 115.25 181.089844 115.183594 180.953125 115.070312 C 180.863281 115 172.34375 107.65625 166.46875 99.085938 C 160.59375 90.519531 156.339844 77.144531 156.160156 76.597656 C 156.066406 76.308594 156.160156 75.992188 156.390625 75.796875 L 161.585938 71.433594 C 161.78125 71.269531 162.039062 71.214844 162.28125 71.289062 C 162.523438 71.363281 162.710938 71.550781 162.78125 71.792969 C 164.578125 77.789062 177.925781 95.617188 178.0625 95.78125 C 178.128906 95.867188 178.171875 95.96875 178.195312 96.074219 L 182.171875 114.34375 C 182.242188 114.65625 182.097656 114.980469 181.820312 115.144531 C 181.707031 115.214844 181.574219 115.25 181.441406 115.25 Z M 157.722656 76.582031 C 158.539062 79.070312 162.527344 90.714844 167.671875 98.21875 C 171.351562 103.347656 175.546875 108.089844 180.191406 112.363281 L 176.769531 96.507812 C 175.511719 94.84375 164.449219 79.957031 161.722656 73.269531 Z M 157.722656 76.582031 "/>
<path style=" stroke:none;fill-rule:nonzero;fill:rgb(40.784314%,88.235294%,99.215686%);fill-opacity:1;" d="M 177.464844 96.207031 L 201.816406 96.207031 L 201.816406 123.628906 L 177.464844 123.628906 Z M 177.464844 96.207031 "/>
<path style=" stroke:none;fill-rule:nonzero;fill:rgb(3.529412%,24.705882%,40.784314%);fill-opacity:1;" d="M 201.824219 124.378906 L 177.464844 124.378906 C 177.050781 124.378906 176.714844 124.042969 176.714844 123.628906 L 176.714844 96.207031 C 176.714844 95.792969 177.050781 95.457031 177.464844 95.457031 L 201.824219 95.457031 C 202.238281 95.457031 202.574219 95.792969 202.574219 96.207031 L 202.574219 123.628906 C 202.574219 124.042969 202.238281 124.378906 201.824219 124.378906 Z M 178.21875 122.878906 L 201.078125 122.878906 L 201.078125 96.957031 L 178.210938 96.957031 Z M 178.21875 122.878906 "/>
<path style=" stroke:none;fill-rule:nonzero;fill:rgb(88.627451%,51.372549%,38.431373%);fill-opacity:1;" d="M 194.1875 102.96875 C 191.695312 104.65625 188.484375 104.824219 185.832031 103.410156 C 183.175781 102 181.519531 99.234375 181.515625 96.222656 L 197.773438 96.222656 C 197.769531 98.929688 196.421875 101.457031 194.1875 102.96875 "/>
<path style=" stroke:none;fill-rule:nonzero;fill:rgb(3.529412%,24.705882%,40.784314%);fill-opacity:1;" d="M 189.648438 105.113281 C 184.746094 105.109375 180.773438 101.125 180.769531 96.207031 C 180.769531 95.792969 181.101562 95.457031 181.515625 95.457031 L 197.773438 95.457031 C 198.1875 95.457031 198.519531 95.792969 198.519531 96.207031 C 198.519531 101.125 194.550781 105.109375 189.648438 105.113281 Z M 182.300781 96.957031 C 182.6875 100.738281 185.859375 103.609375 189.648438 103.613281 C 191.117188 103.617188 192.550781 103.175781 193.765625 102.347656 C 195.585938 101.121094 196.765625 99.144531 196.980469 96.957031 Z M 182.300781 96.957031 "/>
<path style=" stroke:none;fill-rule:nonzero;fill:rgb(44.705882%,34.509804%,34.509804%);fill-opacity:1;" d="M 190.375 59.4375 C 183.976562 59.125 177.382812 61.019531 174.789062 67.535156 C 173.203125 71.507812 173.160156 75.9375 173.613281 80.1875 C 173.648438 81.175781 173.902344 82.144531 174.363281 83.023438 C 175.257812 84.460938 176.535156 84.648438 178.003906 84.332031 C 179.878906 83.9375 181.902344 84.125 183.832031 84.125 L 196.800781 84.125 C 198.789062 84.125 203.011719 85.441406 204.1875 83.375 C 205.359375 81.304688 205.195312 77.648438 205.324219 75.40625 C 205.488281 72.40625 205.261719 69.296875 203.894531 66.550781 C 201.308594 61.273438 195.800781 59.714844 190.375 59.4375 Z M 190.375 59.4375 "/>
<path style=" stroke:none;fill-rule:nonzero;fill:rgb(3.529412%,24.705882%,40.784314%);fill-opacity:1;" d="M 201.339844 85.261719 C 200.421875 85.246094 199.503906 85.164062 198.597656 85.023438 C 198.007812 84.929688 197.417969 84.875 196.824219 84.851562 L 182.441406 84.851562 C 181.027344 84.765625 179.609375 84.835938 178.210938 85.070312 C 176.191406 85.496094 174.742188 84.957031 173.777344 83.417969 C 173.25 82.449219 172.949219 81.375 172.898438 80.269531 C 172.296875 74.925781 172.671875 70.789062 174.09375 67.273438 C 177.285156 59.265625 185.679688 58.472656 190.410156 58.710938 C 197.511719 59.0625 202.289062 61.597656 204.613281 66.207031 C 205.847656 68.6875 206.316406 71.621094 206.109375 75.433594 C 206.109375 75.832031 206.109375 76.273438 206.0625 76.746094 C 205.988281 79.054688 205.890625 81.925781 204.882812 83.734375 C 204.164062 84.964844 202.8125 85.261719 201.339844 85.261719 Z M 180.984375 83.308594 L 196.855469 83.308594 C 197.511719 83.328125 198.167969 83.390625 198.820312 83.496094 C 200.570312 83.71875 202.960938 84.035156 203.582031 82.933594 C 204.417969 81.433594 204.507812 78.667969 204.574219 76.636719 C 204.574219 76.148438 204.574219 75.699219 204.628906 75.285156 C 204.824219 71.738281 204.394531 69.046875 203.28125 66.816406 C 201.203125 62.648438 196.980469 60.457031 190.367188 60.121094 C 186.046875 59.902344 178.359375 60.609375 175.511719 67.75 C 174.199219 71.042969 173.839844 74.949219 174.382812 80.039062 C 174.414062 80.917969 174.640625 81.777344 175.042969 82.558594 C 175.671875 83.546875 176.492188 83.832031 177.898438 83.53125 C 178.917969 83.359375 179.953125 83.289062 180.984375 83.328125 Z M 180.984375 83.308594 "/>
<path style=" stroke:none;fill-rule:nonzero;fill:rgb(88.627451%,51.372549%,38.431373%);fill-opacity:1;" d="M 191.703125 97.488281 L 191.703125 94.828125 L 187.089844 94.828125 L 187.089844 97.488281 "/>
<path style=" stroke:none;fill-rule:nonzero;fill:rgb(3.529412%,24.705882%,40.784314%);fill-opacity:1;" d="M 191.703125 98.238281 C 191.292969 98.238281 190.957031 97.902344 190.957031 97.488281 L 190.957031 95.578125 L 187.839844 95.578125 L 187.839844 97.488281 C 187.839844 97.902344 187.503906 98.238281 187.089844 98.238281 C 186.679688 98.238281 186.34375 97.902344 186.34375 97.488281 L 186.34375 94.828125 C 186.34375 94.414062 186.679688 94.078125 187.089844 94.078125 L 191.703125 94.078125 C 192.117188 94.078125 192.453125 94.414062 192.453125 94.828125 L 192.453125 97.488281 C 192.453125 97.902344 192.117188 98.238281 191.703125 98.238281 Z M 191.703125 98.238281 "/>
<path style=" stroke:none;fill-rule:nonzero;fill:rgb(88.627451%,51.372549%,38.431373%);fill-opacity:1;" d="M 206.035156 82.8125 C 206.035156 80.671875 204.144531 78.9375 201.816406 78.9375 C 199.488281 78.9375 197.601562 80.671875 197.601562 82.8125 C 197.601562 84.953125 199.488281 86.6875 201.816406 86.6875 C 204.144531 86.6875 206.035156 84.953125 206.035156 82.8125 Z M 206.035156 82.8125 "/>
<path style=" stroke:none;fill-rule:nonzero;fill:rgb(3.529412%,24.705882%,40.784314%);fill-opacity:1;" d="M 201.824219 87.4375 C 199.320312 87.25 197.421875 85.09375 197.546875 82.578125 C 197.671875 80.0625 199.773438 78.109375 202.285156 78.171875 C 204.796875 78.234375 206.796875 80.292969 206.796875 82.8125 C 206.691406 85.464844 204.46875 87.53125 201.824219 87.4375 Z M 201.824219 79.6875 C 200.152344 79.871094 198.921875 81.351562 199.046875 83.035156 C 199.167969 84.722656 200.597656 86.007812 202.28125 85.945312 C 203.964844 85.886719 205.296875 84.5 205.300781 82.8125 C 205.195312 80.988281 203.644531 79.59375 201.824219 79.6875 Z M 201.824219 79.6875 "/>
<path style=" stroke:none;fill-rule:nonzero;fill:rgb(88.627451%,51.372549%,38.431373%);fill-opacity:1;" d="M 181.433594 82.8125 C 181.433594 80.671875 179.546875 78.9375 177.21875 78.9375 C 174.890625 78.9375 173 80.671875 173 82.8125 C 173 84.953125 174.890625 86.6875 177.21875 86.6875 C 179.546875 86.6875 181.433594 84.953125 181.433594 82.8125 Z M 181.433594 82.8125 "/>
<path style=" stroke:none;fill-rule:nonzero;fill:rgb(3.529412%,24.705882%,40.784314%);fill-opacity:1;" d="M 177.21875 87.4375 C 174.714844 87.25 172.816406 85.09375 172.941406 82.578125 C 173.066406 80.0625 175.167969 78.109375 177.675781 78.171875 C 180.1875 78.234375 182.1875 80.292969 182.1875 82.8125 C 182.082031 85.464844 179.859375 87.53125 177.21875 87.4375 Z M 177.21875 79.6875 C 175.542969 79.871094 174.316406 81.351562 174.4375 83.035156 C 174.558594 84.722656 175.988281 86.007812 177.671875 85.945312 C 179.355469 85.886719 180.691406 84.5 180.691406 82.8125 C 180.589844 80.988281 179.035156 79.59375 177.21875 79.6875 Z M 177.21875 79.6875 "/>
<path style=" stroke:none;fill-rule:nonzero;fill:rgb(88.627451%,51.372549%,38.431373%);fill-opacity:1;" d="M 189.402344 95.4375 C 196.863281 95.433594 202.914062 89.367188 202.917969 81.882812 C 202.96875 79.515625 202.894531 77.148438 202.691406 74.789062 C 202.644531 74.113281 202.523438 73.445312 202.324219 72.796875 C 201.175781 69.46875 197.28125 70.609375 195.128906 72.144531 C 193.453125 73.335938 191.847656 74.84375 189.804688 75.089844 C 188.335938 75.203125 186.871094 74.800781 185.664062 73.953125 C 183.324219 72.453125 181.8125 68.261719 178.601562 70.691406 C 175.386719 73.117188 175.886719 78.269531 175.886719 81.882812 C 175.886719 89.367188 181.9375 95.4375 189.402344 95.4375 Z M 189.402344 95.4375 "/>
<path style=" stroke:none;fill-rule:nonzero;fill:rgb(3.529412%,24.705882%,40.784314%);fill-opacity:1;" d="M 189.402344 96.1875 C 181.527344 96.175781 175.148438 89.777344 175.140625 81.882812 C 175.140625 81.425781 175.140625 80.945312 175.140625 80.449219 C 175.070312 76.914062 174.980469 72.503906 178.175781 70.089844 C 180.976562 67.96875 182.90625 70.089844 184.320312 71.640625 C 184.839844 72.273438 185.433594 72.839844 186.089844 73.328125 C 187.152344 74.078125 188.441406 74.441406 189.738281 74.347656 C 191.234375 74.167969 192.453125 73.222656 193.773438 72.226562 L 194.714844 71.53125 C 196.210938 70.464844 198.664062 69.445312 200.695312 70.089844 C 201.820312 70.476562 202.6875 71.378906 203.027344 72.519531 C 203.25 73.222656 203.382812 73.949219 203.433594 74.6875 C 203.628906 76.820312 203.703125 78.960938 203.664062 81.101562 L 203.664062 81.851562 C 203.671875 89.761719 197.285156 96.175781 189.402344 96.1875 Z M 180.476562 70.699219 C 179.949219 70.730469 179.445312 70.9375 179.046875 71.289062 C 176.46875 73.238281 176.542969 77.054688 176.613281 80.421875 C 176.613281 80.921875 176.613281 81.40625 176.613281 81.882812 C 176.613281 88.953125 182.328125 94.6875 189.378906 94.6875 C 196.429688 94.6875 202.144531 88.953125 202.144531 81.882812 L 202.144531 81.132812 C 202.1875 79.042969 202.113281 76.953125 201.929688 74.875 C 201.886719 74.25 201.777344 73.636719 201.601562 73.035156 C 201.394531 72.332031 200.859375 71.773438 200.164062 71.539062 C 198.789062 71.101562 196.800781 71.875 195.539062 72.773438 C 195.230469 72.992188 194.933594 73.214844 194.632812 73.449219 C 193.207031 74.519531 191.734375 75.628906 189.871094 75.855469 C 188.226562 75.988281 186.585938 75.546875 185.230469 74.601562 C 184.464844 74.050781 183.773438 73.402344 183.167969 72.675781 C 182.113281 71.46875 181.359375 70.699219 180.476562 70.699219 Z M 180.476562 70.699219 "/>
<path style=" stroke:none;fill-rule:nonzero;fill:rgb(3.529412%,24.705882%,40.784314%);fill-opacity:1;" d="M 189.46875 84.875 C 189.097656 84.878906 188.726562 84.839844 188.363281 84.761719 C 188.050781 84.683594 187.796875 84.464844 187.667969 84.167969 C 187.277344 83.308594 188.035156 81.515625 188.734375 80.171875 C 188.925781 79.804688 189.378906 79.660156 189.746094 79.851562 C 190.113281 80.042969 190.257812 80.496094 190.066406 80.863281 C 189.640625 81.652344 189.304688 82.492188 189.074219 83.359375 C 189.542969 83.394531 190.019531 83.371094 190.484375 83.292969 C 190.898438 83.21875 191.292969 83.496094 191.363281 83.910156 C 191.4375 84.324219 191.160156 84.71875 190.746094 84.792969 C 190.324219 84.851562 189.894531 84.878906 189.46875 84.875 Z M 189.050781 83.613281 Z M 189.050781 83.613281 "/>
<path style=" stroke:none;fill-rule:nonzero;fill:rgb(88.627451%,51.372549%,38.431373%);fill-opacity:1;" d="M 205.105469 174.742188 L 197.824219 174.742188 L 196.546875 166.929688 L 190.933594 123.703125 L 200.875 123.703125 L 204.238281 166.929688 Z M 205.105469 174.742188 "/>
<path style=" stroke:none;fill-rule:nonzero;fill:rgb(3.529412%,24.705882%,40.784314%);fill-opacity:1;" d="M 205.113281 175.488281 L 197.832031 175.488281 C 197.464844 175.496094 197.144531 175.226562 197.085938 174.859375 L 195.84375 167.050781 L 190.222656 123.800781 C 190.195312 123.589844 190.261719 123.371094 190.402344 123.210938 C 190.546875 123.046875 190.753906 122.953125 190.972656 122.957031 L 200.914062 122.957031 C 201.304688 122.953125 201.628906 123.253906 201.660156 123.644531 L 205.023438 166.871094 L 205.898438 174.65625 C 205.921875 174.867188 205.851562 175.078125 205.710938 175.234375 C 205.5625 175.40625 205.339844 175.5 205.113281 175.488281 Z M 198.460938 173.992188 L 204.277344 173.992188 L 203.53125 167.011719 L 200.21875 124.453125 L 191.777344 124.453125 L 197.289062 166.832031 Z M 198.460938 173.992188 "/>
<path style=" stroke:none;fill-rule:nonzero;fill:rgb(88.627451%,51.372549%,38.431373%);fill-opacity:1;" d="M 188.585938 123.703125 L 182.578125 166.929688 L 181.476562 174.742188 L 173.75 174.742188 L 174.660156 166.929688 L 179.652344 123.703125 Z M 188.585938 123.703125 "/>
<path style=" stroke:none;fill-rule:nonzero;fill:rgb(3.529412%,24.705882%,40.784314%);fill-opacity:1;" d="M 181.484375 175.488281 L 173.757812 175.488281 C 173.542969 175.488281 173.335938 175.398438 173.195312 175.234375 C 173.054688 175.074219 172.984375 174.863281 173.007812 174.652344 L 178.914062 123.613281 C 178.960938 123.238281 179.28125 122.953125 179.660156 122.957031 L 188.585938 122.957031 C 188.804688 122.953125 189.011719 123.046875 189.15625 123.210938 C 189.300781 123.375 189.363281 123.59375 189.335938 123.808594 L 182.226562 174.84375 C 182.171875 175.214844 181.859375 175.488281 181.484375 175.488281 Z M 174.59375 173.992188 L 180.835938 173.992188 L 187.734375 124.453125 L 180.328125 124.453125 Z M 174.59375 173.992188 "/>
<path style=" stroke:none;fill-rule:nonzero;fill:rgb(100%,100%,100%);fill-opacity:1;" d="M 197.824219 174.742188 L 198.378906 181.316406 L 213.484375 181.316406 L 205.113281 174.742188 Z M 197.824219 174.742188 "/>
<path style=" stroke:none;fill-rule:nonzero;fill:rgb(3.529412%,24.705882%,40.784314%);fill-opacity:1;" d="M 213.484375 182.0625 L 198.378906 182.0625 C 197.988281 182.066406 197.664062 181.765625 197.632812 181.375 L 197.078125 174.800781 C 197.0625 174.589844 197.132812 174.386719 197.273438 174.230469 C 197.414062 174.078125 197.617188 173.988281 197.824219 173.992188 L 205.105469 173.992188 C 205.273438 173.992188 205.433594 174.046875 205.5625 174.148438 L 213.933594 180.722656 C 214.1875 180.917969 214.285156 181.253906 214.183594 181.554688 C 214.082031 181.859375 213.796875 182.0625 213.480469 182.0625 Z M 199.066406 180.566406 L 211.316406 180.566406 L 204.851562 175.488281 L 198.640625 175.488281 Z M 199.066406 180.566406 "/>
<path style=" stroke:none;fill-rule:nonzero;fill:rgb(100%,100%,100%);fill-opacity:1;" d="M 181.859375 174.742188 L 181.859375 181.316406 L 166.402344 181.316406 L 173.757812 174.742188 Z M 181.859375 174.742188 "/>
<path style=" stroke:none;fill-rule:nonzero;fill:rgb(3.529412%,24.705882%,40.784314%);fill-opacity:1;" d="M 181.859375 182.0625 L 166.402344 182.0625 C 166.089844 182.0625 165.8125 181.867188 165.707031 181.578125 C 165.597656 181.285156 165.675781 180.960938 165.90625 180.753906 L 173.253906 174.179688 C 173.394531 174.054688 173.570312 173.988281 173.757812 173.992188 L 181.859375 173.992188 C 182.273438 173.992188 182.605469 174.328125 182.605469 174.742188 L 182.605469 181.316406 C 182.605469 181.730469 182.273438 182.0625 181.859375 182.0625 Z M 168.402344 180.566406 L 181.113281 180.566406 L 181.113281 175.488281 L 174.039062 175.488281 Z M 168.402344 180.566406 "/>
<path style=" stroke:none;fill-rule:nonzero;fill:rgb(3.529412%,24.705882%,40.784314%);fill-opacity:1;" d="M 197.25 80.253906 C 196.835938 80.253906 196.503906 79.921875 196.503906 79.507812 C 196.539062 79.027344 196.304688 78.566406 195.894531 78.316406 C 195.484375 78.0625 194.96875 78.0625 194.5625 78.316406 C 194.152344 78.566406 193.917969 79.027344 193.953125 79.507812 C 193.953125 79.921875 193.621094 80.253906 193.207031 80.253906 C 192.792969 80.253906 192.457031 79.921875 192.457031 79.507812 C 192.40625 78.480469 192.921875 77.507812 193.800781 76.976562 C 194.679688 76.449219 195.777344 76.449219 196.65625 76.976562 C 197.535156 77.507812 198.050781 78.480469 197.996094 79.507812 C 197.996094 79.921875 197.664062 80.253906 197.25 80.253906 Z M 197.25 80.253906 "/>
<path style=" stroke:none;fill-rule:nonzero;fill:rgb(3.529412%,24.705882%,40.784314%);fill-opacity:1;" d="M 185.753906 80.253906 C 185.339844 80.253906 185.007812 79.921875 185.007812 79.507812 C 185.042969 79.027344 184.808594 78.566406 184.398438 78.316406 C 183.988281 78.0625 183.472656 78.0625 183.066406 78.316406 C 182.65625 78.566406 182.421875 79.027344 182.457031 79.507812 C 182.457031 79.921875 182.121094 80.253906 181.710938 80.253906 C 181.296875 80.253906 180.960938 79.921875 180.960938 79.507812 C 180.910156 78.480469 181.425781 77.507812 182.304688 76.976562 C 183.183594 76.449219 184.28125 76.449219 185.160156 76.976562 C 186.039062 77.507812 186.554688 78.480469 186.5 79.507812 C 186.5 79.921875 186.167969 80.253906 185.753906 80.253906 Z M 185.753906 80.253906 "/>
<path style=" stroke:none;fill-rule:nonzero;fill:rgb(3.529412%,24.705882%,40.784314%);fill-opacity:1;" d="M 177.464844 123.628906 L 174.429688 150.683594 L 187.621094 150.683594 L 190.828125 133.285156 L 192.457031 150.683594 L 205.53125 150.757812 L 201.816406 123.628906 Z M 177.464844 123.628906 "/>
<path style=" stroke:none;fill-rule:nonzero;fill:rgb(3.529412%,24.705882%,40.784314%);fill-opacity:1;" d="M 205.5625 151.507812 L 192.496094 151.433594 C 192.109375 151.4375 191.789062 151.144531 191.75 150.757812 L 190.613281 138.71875 L 188.371094 150.820312 C 188.304688 151.179688 187.988281 151.441406 187.621094 151.433594 L 174.429688 151.433594 C 174.214844 151.433594 174.011719 151.34375 173.871094 151.1875 C 173.726562 151.027344 173.65625 150.816406 173.679688 150.601562 L 176.722656 123.546875 C 176.765625 123.164062 177.089844 122.878906 177.472656 122.878906 L 201.824219 122.878906 C 202.199219 122.875 202.519531 123.152344 202.574219 123.523438 L 206.308594 150.65625 C 206.339844 150.871094 206.273438 151.089844 206.128906 151.253906 C 205.988281 151.417969 205.78125 151.511719 205.5625 151.507812 Z M 193.167969 149.941406 L 204.703125 150.003906 L 201.195312 124.378906 L 178.136719 124.378906 L 175.257812 149.933594 L 187.003906 149.933594 L 190.089844 133.148438 C 190.15625 132.789062 190.472656 132.53125 190.835938 132.535156 C 191.207031 132.550781 191.511719 132.839844 191.546875 133.210938 Z M 193.167969 149.941406 "/>
<path style=" stroke:none;fill-rule:nonzero;fill:rgb(40.784314%,88.235294%,99.215686%);fill-opacity:1;" d="M 182.578125 166.929688 L 181.476562 174.742188 L 173.75 174.742188 L 174.660156 166.929688 Z M 182.578125 166.929688 "/>
<path style=" stroke:none;fill-rule:nonzero;fill:rgb(3.529412%,24.705882%,40.784314%);fill-opacity:1;" d="M 181.484375 175.488281 L 173.757812 175.488281 C 173.542969 175.488281 173.335938 175.398438 173.195312 175.234375 C 173.054688 175.074219 172.984375 174.863281 173.007812 174.652344 L 173.914062 166.839844 C 173.957031 166.460938 174.28125 166.175781 174.660156 166.179688 L 182.578125 166.179688 C 182.792969 166.179688 182.996094 166.273438 183.136719 166.433594 C 183.28125 166.597656 183.347656 166.816406 183.316406 167.035156 L 182.226562 174.84375 C 182.171875 175.214844 181.859375 175.488281 181.484375 175.488281 Z M 174.59375 173.992188 L 180.835938 173.992188 L 181.71875 167.679688 L 175.324219 167.679688 Z M 174.59375 173.992188 "/>
<path style=" stroke:none;fill-rule:nonzero;fill:rgb(40.784314%,88.235294%,99.215686%);fill-opacity:1;" d="M 205.105469 174.742188 L 197.824219 174.742188 L 196.546875 166.929688 L 204.238281 166.929688 Z M 205.105469 174.742188 "/>
<path style=" stroke:none;fill-rule:nonzero;fill:rgb(3.529412%,24.705882%,40.784314%);fill-opacity:1;" d="M 205.113281 175.488281 L 197.832031 175.488281 C 197.464844 175.496094 197.144531 175.226562 197.085938 174.859375 L 195.84375 167.050781 C 195.808594 166.832031 195.867188 166.609375 196.007812 166.441406 C 196.152344 166.273438 196.363281 166.175781 196.585938 166.179688 L 204.277344 166.179688 C 204.660156 166.175781 204.980469 166.464844 205.023438 166.847656 L 205.898438 174.65625 C 205.921875 174.867188 205.851562 175.078125 205.710938 175.234375 C 205.5625 175.40625 205.339844 175.5 205.113281 175.488281 Z M 198.460938 173.992188 L 204.277344 173.992188 L 203.566406 167.679688 L 197.421875 167.679688 Z M 198.460938 173.992188 "/>
<path style=" stroke:none;fill-rule:nonzero;fill:rgb(3.529412%,24.705882%,40.784314%);fill-opacity:1;" d="M 191.988281 87.289062 C 191.332031 86.972656 186.6875 86.828125 186.6875 86.828125 C 186.6875 86.828125 186.34375 91.050781 189.003906 91.328125 C 191.667969 91.605469 191.988281 87.289062 191.988281 87.289062 Z M 191.988281 87.289062 "/>
<path style=" stroke:none;fill-rule:nonzero;fill:rgb(100%,73.72549%,5.490196%);fill-opacity:1;" d="M 192.636719 111.628906 C 192.636719 113.433594 191.179688 114.898438 189.378906 114.898438 C 187.578125 114.898438 186.121094 113.433594 186.121094 111.628906 C 186.121094 109.824219 187.578125 108.359375 189.378906 108.359375 C 191.179688 108.359375 192.636719 109.824219 192.636719 111.628906 Z M 192.636719 111.628906 "/>
<path style=" stroke:none;fill-rule:nonzero;fill:rgb(3.529412%,24.705882%,40.784314%);fill-opacity:1;" d="M 189.378906 115.644531 C 187.167969 115.640625 185.378906 113.839844 185.378906 111.625 C 185.382812 109.40625 187.175781 107.609375 189.390625 107.609375 C 191.601562 107.613281 193.394531 109.410156 193.394531 111.628906 C 193.394531 112.695312 192.96875 113.71875 192.21875 114.472656 C 191.464844 115.226562 190.441406 115.648438 189.378906 115.644531 Z M 189.378906 109.109375 C 187.992188 109.113281 186.871094 110.242188 186.875 111.632812 C 186.878906 113.023438 188.003906 114.148438 189.390625 114.148438 C 190.773438 114.144531 191.898438 113.019531 191.898438 111.628906 C 191.894531 110.234375 190.765625 109.109375 189.378906 109.109375 Z M 189.378906 109.109375 "/>
<path style=" stroke:none;fill-rule:nonzero;fill:rgb(3.529412%,24.705882%,40.784314%);fill-opacity:1;" d="M 189.378906 109.109375 C 189.097656 109.105469 188.839844 108.945312 188.714844 108.691406 C 186.882812 104.75 185.347656 100.675781 184.117188 96.507812 C 184 96.109375 184.230469 95.695312 184.625 95.578125 C 185.019531 95.460938 185.4375 95.691406 185.550781 96.089844 C 186.609375 99.660156 187.886719 103.167969 189.371094 106.582031 C 190.386719 104.335938 192.363281 99.957031 193.8125 95.960938 C 193.953125 95.570312 194.382812 95.371094 194.773438 95.515625 C 195.160156 95.65625 195.359375 96.089844 195.21875 96.476562 C 193.125 102.144531 190.089844 108.613281 190.058594 108.675781 C 189.9375 108.9375 189.675781 109.105469 189.386719 109.109375 Z M 189.378906 109.109375 "/>
<path style=" stroke:none;fill-rule:nonzero;fill:rgb(88.627451%,51.372549%,38.431373%);fill-opacity:1;" d="M 201.824219 96.207031 L 201.824219 103.464844 L 210.882812 108.359375 L 201.40625 107.429688 C 201.355469 107.378906 198.257812 105.179688 197.667969 104.703125 C 197.078125 104.222656 195.375 105.570312 196.292969 106.949219 C 196.636719 107.46875 197.527344 107.585938 197.902344 108.082031 C 196.21875 108.253906 194.5 108.179688 192.90625 108.742188 C 192.085938 109.035156 190.761719 108.921875 190.800781 109.800781 C 190.800781 109.925781 191.300781 111.636719 196.855469 110.636719 C 196.511719 111.777344 196.855469 113.480469 198.003906 113.847656 C 198.828125 114.109375 201.054688 114.28125 201.535156 113.359375 C 201.535156 113.359375 213 116.523438 219.898438 114.058594 C 230.410156 110.269531 201.824219 96.207031 201.824219 96.207031 Z M 201.824219 96.207031 "/>
<path style=" stroke:none;fill-rule:nonzero;fill:rgb(3.529412%,24.705882%,40.784314%);fill-opacity:1;" d="M 213.304688 115.742188 C 209.414062 115.667969 205.542969 115.152344 201.765625 114.199219 C 200.703125 115.078125 198.511719 114.800781 197.757812 114.550781 C 196.5625 114.167969 195.949219 112.835938 195.957031 111.554688 C 193.40625 111.90625 191.628906 111.6875 190.671875 110.914062 C 190.320312 110.664062 190.085938 110.273438 190.03125 109.84375 C 189.96875 108.570312 191.269531 108.34375 191.964844 108.203125 C 192.191406 108.164062 192.414062 108.117188 192.628906 108.050781 C 193.636719 107.730469 194.679688 107.542969 195.734375 107.496094 C 195.703125 107.460938 195.671875 107.421875 195.652344 107.378906 C 194.992188 106.425781 195.160156 105.128906 196.039062 104.378906 C 196.582031 103.789062 197.472656 103.695312 198.125 104.160156 C 198.511719 104.492188 200.15625 105.660156 201.046875 106.289062 L 201.675781 106.742188 L 207.246094 107.289062 L 201.464844 104.160156 C 201.222656 104.03125 201.070312 103.777344 201.070312 103.503906 L 201.070312 96.207031 C 201.070312 95.949219 201.203125 95.707031 201.421875 95.570312 C 201.652344 95.4375 201.9375 95.4375 202.167969 95.570312 C 204.335938 96.636719 223.292969 106.125 222.972656 111.824219 C 222.898438 113.148438 221.949219 114.148438 220.144531 114.820312 C 217.933594 115.511719 215.621094 115.820312 213.304688 115.742188 Z M 201.511719 112.601562 C 201.574219 112.589844 201.640625 112.589844 201.707031 112.601562 C 201.824219 112.601562 213.039062 115.675781 219.644531 113.351562 C 220.828125 112.925781 221.4375 112.378906 221.476562 111.710938 C 221.671875 108.320312 210.414062 101.394531 202.585938 97.429688 L 202.585938 103.03125 L 211.25 107.707031 C 211.566406 107.875 211.71875 108.242188 211.617188 108.585938 C 211.511719 108.925781 211.179688 109.148438 210.824219 109.109375 L 201.347656 108.1875 C 201.199219 108.171875 201.0625 108.109375 200.949219 108.015625 L 200.203125 107.484375 C 198.960938 106.605469 197.722656 105.714844 197.257812 105.339844 C 197.078125 105.417969 196.929688 105.5625 196.847656 105.742188 C 196.71875 105.996094 196.746094 106.300781 196.914062 106.53125 C 197.070312 106.675781 197.253906 106.789062 197.453125 106.867188 C 197.851562 107.035156 198.210938 107.292969 198.5 107.617188 C 198.667969 107.835938 198.703125 108.125 198.59375 108.375 C 198.484375 108.628906 198.246094 108.800781 197.976562 108.824219 C 197.496094 108.871094 197.019531 108.898438 196.53125 108.929688 C 195.386719 108.945312 194.253906 109.117188 193.152344 109.4375 C 192.863281 109.539062 192.5625 109.609375 192.257812 109.65625 C 192.101562 109.65625 191.875 109.722656 191.703125 109.769531 C 192.113281 110.046875 193.347656 110.519531 196.71875 109.898438 C 196.972656 109.851562 197.234375 109.941406 197.40625 110.136719 C 197.578125 110.332031 197.636719 110.601562 197.5625 110.847656 C 197.324219 111.671875 197.601562 112.917969 198.238281 113.097656 C 199.105469 113.375 200.703125 113.300781 200.867188 112.976562 C 201 112.746094 201.246094 112.605469 201.511719 112.601562 Z M 201.511719 112.601562 "/>
<path style=" stroke:none;fill-rule:nonzero;fill:rgb(3.529412%,24.705882%,40.784314%);fill-opacity:1;" d="M 213.925781 109.542969 L 213.824219 109.542969 L 210.796875 109.101562 C 210.597656 109.074219 210.417969 108.96875 210.300781 108.808594 C 210.179688 108.648438 210.128906 108.445312 210.160156 108.246094 C 210.222656 107.839844 210.597656 107.558594 211.003906 107.617188 L 214.054688 108.050781 C 214.46875 108.082031 214.777344 108.441406 214.75 108.855469 C 214.71875 109.269531 214.363281 109.582031 213.949219 109.550781 Z M 213.925781 109.542969 "/>
<path style=" stroke:none;fill-rule:nonzero;fill:rgb(100%,78.823529%,69.019608%);fill-opacity:1;" d="M 102.738281 96.703125 C 102.738281 96.703125 89.402344 81.269531 88.144531 75.089844 L 82.164062 76.828125 C 82.164062 76.828125 86.476562 90.546875 92.375 99.132812 C 98.273438 107.714844 106.726562 114.972656 106.726562 114.972656 Z M 102.738281 96.703125 "/>
<path style=" stroke:none;fill-rule:nonzero;fill:rgb(3.529412%,24.705882%,40.784314%);fill-opacity:1;" d="M 106.707031 115.722656 C 106.527344 115.722656 106.355469 115.65625 106.21875 115.542969 C 106.136719 115.464844 97.617188 108.121094 91.734375 99.558594 C 85.851562 91 81.613281 77.617188 81.433594 77.070312 C 81.371094 76.875 81.394531 76.667969 81.488281 76.488281 C 81.582031 76.3125 81.746094 76.179688 81.941406 76.125 L 87.921875 74.386719 C 88.121094 74.332031 88.335938 74.359375 88.511719 74.46875 C 88.6875 74.574219 88.8125 74.753906 88.855469 74.957031 C 90.066406 80.871094 103.15625 96.074219 103.28125 96.222656 C 103.363281 96.320312 103.421875 96.4375 103.445312 96.558594 L 107.421875 114.828125 C 107.492188 115.144531 107.351562 115.464844 107.078125 115.632812 C 106.964844 115.691406 106.835938 115.722656 106.707031 115.722656 Z M 83.097656 77.332031 C 84.078125 80.277344 87.972656 91.441406 92.964844 98.703125 C 96.644531 103.839844 100.835938 108.582031 105.480469 112.859375 L 102.042969 97.046875 C 100.660156 95.429688 89.609375 82.414062 87.613281 76.058594 Z M 83.097656 77.332031 "/>
<path style=" stroke:none;fill-rule:nonzero;fill:rgb(100%,73.72549%,5.490196%);fill-opacity:1;" d="M 85.695312 93.171875 C 85.695312 94.976562 84.234375 96.441406 82.433594 96.441406 C 80.632812 96.441406 79.175781 94.976562 79.175781 93.171875 C 79.175781 91.367188 80.632812 89.902344 82.433594 89.902344 C 84.234375 89.902344 85.695312 91.367188 85.695312 93.171875 Z M 85.695312 93.171875 "/>
<path style=" stroke:none;fill-rule:nonzero;fill:rgb(3.529412%,24.705882%,40.784314%);fill-opacity:1;" d="M 82.433594 97.199219 C 80.21875 97.199219 78.421875 95.394531 78.421875 93.171875 C 78.421875 90.949219 80.21875 89.144531 82.433594 89.144531 C 84.652344 89.144531 86.449219 90.949219 86.449219 93.171875 C 86.449219 95.394531 84.652344 97.199219 82.433594 97.199219 Z M 82.433594 90.652344 C 81.042969 90.652344 79.914062 91.785156 79.914062 93.183594 C 79.917969 94.578125 81.046875 95.707031 82.4375 95.707031 C 83.832031 95.703125 84.957031 94.566406 84.953125 93.171875 C 84.949219 91.78125 83.824219 90.652344 82.433594 90.652344 Z M 82.433594 90.652344 "/>
<path style=" stroke:none;fill-rule:nonzero;fill:rgb(3.529412%,24.705882%,40.784314%);fill-opacity:1;" d="M 82.449219 90.554688 C 82.265625 90.554688 82.09375 90.488281 81.957031 90.367188 C 80.765625 89.320312 80.199219 87.023438 80.230469 83.367188 C 80.3125 81.074219 80.589844 78.796875 81.058594 76.550781 C 81.101562 76.144531 81.265625 75.753906 81.523438 75.433594 C 81.796875 75.164062 82.144531 74.976562 82.523438 74.894531 C 83.289062 74.652344 84.105469 74.621094 84.886719 74.8125 C 85.828125 75.046875 86.554688 75.808594 86.746094 76.761719 C 86.78125 76.886719 86.78125 77.015625 86.746094 77.136719 C 86.90625 77.082031 87.074219 77.082031 87.234375 77.136719 C 87.628906 77.253906 87.855469 77.667969 87.742188 78.066406 C 87.375 79.3125 86.949219 80.644531 86.425781 82.160156 C 86.261719 82.640625 86.089844 83.140625 85.925781 83.660156 C 85.277344 85.96875 84.328125 88.183594 83.105469 90.25 C 82.988281 90.425781 82.796875 90.542969 82.582031 90.570312 Z M 83.945312 76.183594 C 83.597656 76.195312 83.253906 76.246094 82.921875 76.34375 C 82.816406 76.363281 82.71875 76.402344 82.628906 76.453125 C 82.582031 76.570312 82.550781 76.691406 82.539062 76.816406 C 82.085938 78.976562 81.816406 81.175781 81.730469 83.382812 C 81.730469 86.109375 82.046875 87.609375 82.410156 88.433594 C 83.246094 86.746094 83.9375 84.992188 84.476562 83.1875 C 84.648438 82.667969 84.8125 82.160156 84.984375 81.6875 C 85.5 80.1875 85.917969 78.882812 86.277344 77.667969 C 86.273438 77.65625 86.273438 77.640625 86.277344 77.625 C 86.226562 77.644531 86.171875 77.65625 86.121094 77.667969 C 85.714844 77.730469 85.332031 77.453125 85.265625 77.046875 C 85.152344 76.675781 84.851562 76.390625 84.476562 76.296875 C 84.300781 76.234375 84.121094 76.199219 83.9375 76.183594 Z M 83.945312 76.183594 "/>
<path style=" stroke:none;fill-rule:nonzero;fill:rgb(100%,78.823529%,69.019608%);fill-opacity:1;" d="M 84.992188 79.179688 L 82.210938 78.710938 C 80.859375 78.484375 79.949219 77.199219 80.175781 75.84375 L 80.640625 73.058594 C 80.867188 71.703125 82.148438 70.789062 83.5 71.015625 L 86.28125 71.484375 C 87.632812 71.710938 88.542969 72.996094 88.316406 74.351562 L 87.847656 77.136719 C 87.621094 78.492188 86.34375 79.40625 84.992188 79.179688 Z M 84.992188 79.179688 "/>
<path style=" stroke:none;fill-rule:nonzero;fill:rgb(3.529412%,24.705882%,40.784314%);fill-opacity:1;" d="M 85.402344 79.964844 C 85.222656 79.964844 85.042969 79.949219 84.863281 79.917969 L 82.082031 79.445312 C 81.234375 79.304688 80.476562 78.828125 79.980469 78.125 C 79.484375 77.421875 79.289062 76.546875 79.4375 75.699219 L 79.898438 72.910156 C 80.199219 71.140625 81.875 69.949219 83.636719 70.246094 L 86.417969 70.71875 C 87.265625 70.863281 88.023438 71.339844 88.519531 72.042969 C 89.015625 72.746094 89.210938 73.621094 89.066406 74.46875 L 88.59375 77.257812 C 88.332031 78.820312 86.980469 79.964844 85.402344 79.964844 Z M 83.085938 71.71875 C 82.238281 71.71875 81.519531 72.335938 81.378906 73.171875 L 80.910156 75.960938 C 80.75 76.90625 81.386719 77.800781 82.328125 77.960938 L 85.109375 78.425781 C 85.5625 78.503906 86.027344 78.398438 86.402344 78.128906 C 86.777344 77.863281 87.03125 77.457031 87.105469 77.003906 L 87.578125 74.214844 C 87.730469 73.265625 87.09375 72.371094 86.148438 72.210938 L 83.367188 71.769531 C 83.277344 71.742188 83.179688 71.726562 83.085938 71.726562 Z M 83.085938 71.71875 "/>
<path style=" stroke:none;fill-rule:nonzero;fill:rgb(100%,78.823529%,69.019608%);fill-opacity:1;" d="M 88.828125 77.132812 L 88.820312 77.128906 C 88.042969 76.90625 87.597656 76.089844 87.820312 75.3125 L 88.34375 73.496094 C 88.566406 72.714844 89.378906 72.265625 90.15625 72.492188 L 90.164062 72.492188 C 90.941406 72.71875 91.390625 73.535156 91.167969 74.3125 L 90.644531 76.128906 C 90.417969 76.90625 89.605469 77.355469 88.828125 77.132812 Z M 88.828125 77.132812 "/>
<path style=" stroke:none;fill-rule:nonzero;fill:rgb(3.529412%,24.705882%,40.784314%);fill-opacity:1;" d="M 89.238281 77.9375 C 89.027344 77.9375 88.816406 77.910156 88.617188 77.847656 C 87.457031 77.488281 86.796875 76.269531 87.121094 75.097656 L 87.644531 73.292969 C 87.75 72.40625 88.367188 71.667969 89.214844 71.40625 C 90.0625 71.148438 90.988281 71.414062 91.566406 72.085938 C 92.148438 72.761719 92.277344 73.714844 91.898438 74.519531 L 91.375 76.335938 C 91.09375 77.277344 90.234375 77.929688 89.25 77.9375 Z M 89.753906 73.1875 C 89.632812 73.1875 89.511719 73.21875 89.410156 73.277344 C 89.238281 73.363281 89.113281 73.519531 89.066406 73.703125 L 88.542969 75.519531 C 88.449219 75.898438 88.664062 76.289062 89.035156 76.410156 C 89.21875 76.460938 89.414062 76.4375 89.582031 76.351562 C 89.75 76.261719 89.875 76.101562 89.925781 75.914062 L 90.449219 74.109375 C 90.546875 73.726562 90.328125 73.332031 89.953125 73.210938 C 89.886719 73.195312 89.820312 73.1875 89.753906 73.1875 Z M 89.753906 73.1875 "/>
<path style=" stroke:none;fill-rule:nonzero;fill:rgb(100%,78.823529%,69.019608%);fill-opacity:1;" d="M 127.015625 96.207031 C 127.015625 96.207031 140.53125 78.320312 142.601562 71.835938 L 147.601562 76.335938 C 147.601562 76.335938 143.289062 90.054688 137.398438 98.636719 C 131.507812 107.21875 123.039062 114.5 123.039062 114.5 Z M 127.015625 96.207031 "/>
<path style=" stroke:none;fill-rule:nonzero;fill:rgb(3.529412%,24.705882%,40.784314%);fill-opacity:1;" d="M 123.039062 115.25 C 122.902344 115.25 122.773438 115.214844 122.65625 115.144531 C 122.378906 114.980469 122.238281 114.65625 122.304688 114.34375 L 126.28125 96.074219 C 126.304688 95.964844 126.351562 95.867188 126.417969 95.78125 C 126.550781 95.601562 139.871094 77.925781 141.890625 71.636719 C 141.96875 71.394531 142.160156 71.207031 142.40625 71.140625 C 142.652344 71.074219 142.914062 71.136719 143.101562 71.304688 L 148.101562 75.804688 C 148.308594 75.992188 148.390625 76.28125 148.320312 76.550781 C 148.140625 77.113281 143.902344 90.480469 138.011719 99.042969 C 132.121094 107.601562 123.605469 114.957031 123.523438 115.023438 C 123.394531 115.15625 123.222656 115.238281 123.039062 115.25 Z M 127.710938 96.507812 L 124.265625 112.339844 C 128.914062 108.078125 133.109375 103.34375 136.792969 98.21875 C 141.957031 90.71875 145.949219 79.011719 146.757812 76.566406 L 142.9375 73.132812 C 140.074219 80.015625 128.972656 94.851562 127.710938 96.507812 Z M 127.710938 96.507812 "/>
<path style=" stroke:none;fill-rule:nonzero;fill:rgb(40.784314%,88.235294%,99.215686%);fill-opacity:1;" d="M 127.007812 123.628906 L 102.652344 123.628906 L 102.652344 96.207031 L 127.007812 96.207031 Z M 127.007812 123.628906 "/>
<path style=" stroke:none;fill-rule:nonzero;fill:rgb(3.529412%,24.705882%,40.784314%);fill-opacity:1;" d="M 127.015625 124.378906 L 102.660156 124.378906 C 102.25 124.378906 101.914062 124.042969 101.914062 123.628906 L 101.914062 96.207031 C 101.914062 95.792969 102.25 95.457031 102.660156 95.457031 L 127.015625 95.457031 C 127.429688 95.457031 127.761719 95.792969 127.761719 96.207031 L 127.761719 123.628906 C 127.761719 124.042969 127.429688 124.378906 127.015625 124.378906 Z M 103.410156 122.878906 L 126.269531 122.878906 L 126.269531 96.957031 L 103.410156 96.957031 Z M 103.410156 122.878906 "/>
<path style=" stroke:none;fill-rule:nonzero;fill:rgb(100%,78.823529%,69.019608%);fill-opacity:1;" d="M 110.292969 102.96875 C 112.78125 104.65625 115.996094 104.824219 118.648438 103.410156 C 121.300781 102 122.960938 99.234375 122.964844 96.222656 L 106.707031 96.222656 C 106.710938 98.929688 108.054688 101.457031 110.292969 102.96875 "/>
<path style=" stroke:none;fill-rule:nonzero;fill:rgb(3.529412%,24.705882%,40.784314%);fill-opacity:1;" d="M 114.832031 105.113281 C 113.066406 105.125 111.339844 104.601562 109.875 103.613281 C 107.425781 101.960938 105.957031 99.191406 105.957031 96.230469 C 105.957031 95.816406 106.292969 95.480469 106.707031 95.480469 L 122.964844 95.480469 C 123.375 95.480469 123.710938 95.816406 123.710938 96.230469 C 123.695312 101.136719 119.726562 105.109375 114.832031 105.113281 Z M 107.492188 96.957031 C 107.714844 99.144531 108.894531 101.117188 110.710938 102.347656 C 111.925781 103.175781 113.363281 103.617188 114.832031 103.613281 C 118.621094 103.609375 121.792969 100.738281 122.179688 96.957031 Z M 107.492188 96.957031 "/>
<path style=" stroke:none;fill-rule:nonzero;fill:rgb(44.705882%,34.509804%,34.509804%);fill-opacity:1;" d="M 114.367188 59.363281 C 115.195312 59.679688 115.863281 60.210938 116.738281 60.113281 C 118.015625 59.992188 118.785156 59.242188 120.257812 59.632812 C 121.5625 59.933594 122.660156 60.808594 123.246094 62.015625 C 124.484375 62.257812 125.664062 62.730469 126.722656 63.410156 C 127.792969 64.125 128.371094 65.378906 128.21875 66.65625 C 128.269531 66.394531 130.058594 68.367188 130.167969 68.667969 C 130.507812 69.566406 130.363281 70.585938 130.507812 71.515625 C 131 74.371094 131.105469 77.28125 130.828125 80.164062 C 130.792969 81.15625 130.539062 82.125 130.078125 83 C 129.183594 84.4375 127.90625 84.625 126.441406 84.3125 C 124.5625 83.914062 122.539062 84.101562 120.609375 84.101562 L 107.640625 84.101562 C 105.652344 84.101562 101.429688 85.421875 100.253906 83.351562 C 98.757812 80.714844 97.632812 77.136719 99.34375 74.355469 C 99.410156 74.261719 99.460938 74.15625 99.484375 74.042969 C 99.484375 73.851562 99.417969 73.664062 99.296875 73.515625 C 98.605469 72.539062 98.238281 71.371094 98.242188 70.171875 C 98.277344 68.953125 99.078125 67.886719 100.238281 67.519531 C 99.328125 66.019531 100.195312 63.769531 101.414062 62.722656 C 102.4375 61.789062 103.988281 61.753906 105.054688 62.640625 C 104.90625 61.332031 105.621094 60.082031 106.824219 59.554688 C 108.023438 59.023438 109.429688 59.34375 110.285156 60.335938 C 109.898438 59.871094 113.140625 59.101562 113.441406 59.125 C 113.761719 59.152344 114.074219 59.234375 114.367188 59.363281 Z M 114.367188 59.363281 "/>
<path style=" stroke:none;fill-rule:nonzero;fill:rgb(3.529412%,24.705882%,40.784314%);fill-opacity:1;" d="M 103.15625 85.261719 C 101.660156 85.261719 100.328125 84.941406 99.632812 83.710938 C 98.410156 81.523438 96.644531 77.355469 98.730469 73.964844 C 98.730469 73.945312 98.730469 73.925781 98.730469 73.90625 C 97.949219 72.8125 97.539062 71.5 97.554688 70.15625 C 97.617188 68.929688 98.277344 67.808594 99.320312 67.160156 C 98.910156 65.328125 99.519531 63.421875 100.914062 62.167969 C 101.878906 61.363281 103.171875 61.085938 104.382812 61.417969 C 104.679688 60.195312 105.570312 59.207031 106.75 58.785156 C 107.929688 58.359375 109.246094 58.558594 110.25 59.3125 C 111.273438 58.828125 112.367188 58.523438 113.492188 58.402344 C 113.882812 58.433594 114.265625 58.523438 114.628906 58.667969 C 114.898438 58.769531 115.144531 58.890625 115.375 59.003906 C 115.761719 59.242188 116.203125 59.378906 116.65625 59.394531 C 117.03125 59.34375 117.402344 59.253906 117.761719 59.125 C 118.613281 58.785156 119.546875 58.71875 120.4375 58.9375 C 121.824219 59.273438 123.015625 60.164062 123.734375 61.402344 C 124.945312 61.660156 126.101562 62.148438 127.136719 62.835938 C 128.273438 63.617188 128.96875 64.902344 129.003906 66.289062 C 129.722656 66.914062 130.347656 67.632812 130.863281 68.433594 C 131.070312 69.089844 131.171875 69.773438 131.164062 70.457031 C 131.171875 70.785156 131.199219 71.109375 131.238281 71.433594 C 131.734375 74.355469 131.84375 77.328125 131.566406 80.277344 C 131.515625 81.382812 131.214844 82.457031 130.683594 83.425781 C 129.722656 84.925781 128.269531 85.503906 126.253906 85.074219 C 124.855469 84.84375 123.4375 84.769531 122.023438 84.859375 L 107.640625 84.859375 C 107.046875 84.882812 106.457031 84.9375 105.867188 85.03125 C 104.96875 85.167969 104.0625 85.246094 103.15625 85.261719 Z M 103.429688 62.773438 C 102.886719 62.777344 102.355469 62.972656 101.9375 63.320312 C 100.925781 64.175781 100.246094 66.078125 100.914062 67.160156 C 101.039062 67.363281 101.058594 67.617188 100.964844 67.839844 C 100.875 68.0625 100.683594 68.226562 100.449219 68.285156 C 99.613281 68.574219 99.046875 69.359375 99.027344 70.246094 C 99.027344 71.289062 99.359375 72.300781 99.96875 73.140625 C 100.191406 73.4375 100.292969 73.800781 100.261719 74.167969 C 100.226562 74.382812 100.144531 74.585938 100.023438 74.761719 C 98.332031 77.511719 99.882812 81.101562 100.949219 83.007812 C 101.570312 84.109375 103.941406 83.757812 105.710938 83.570312 C 106.363281 83.464844 107.019531 83.402344 107.675781 83.382812 L 122.050781 83.382812 C 123.582031 83.285156 125.121094 83.367188 126.632812 83.628906 C 128.039062 83.929688 128.875 83.628906 129.480469 82.65625 C 129.890625 81.875 130.117188 81.015625 130.148438 80.136719 C 130.421875 77.316406 130.3125 74.472656 129.824219 71.679688 C 129.773438 71.300781 129.746094 70.921875 129.742188 70.539062 C 129.753906 70.011719 129.679688 69.488281 129.527344 68.980469 C 129.089844 68.429688 128.613281 67.914062 128.097656 67.4375 C 127.898438 67.394531 127.726562 67.273438 127.617188 67.101562 C 127.507812 66.929688 127.472656 66.71875 127.523438 66.523438 C 127.601562 65.539062 127.144531 64.589844 126.328125 64.039062 C 125.332031 63.417969 124.230469 62.988281 123.074219 62.773438 C 122.859375 62.71875 122.675781 62.566406 122.582031 62.363281 C 122.085938 61.367188 121.179688 60.644531 120.101562 60.390625 C 119.488281 60.25 118.84375 60.308594 118.269531 60.5625 C 117.804688 60.730469 117.324219 60.839844 116.835938 60.890625 C 116.109375 60.914062 115.394531 60.734375 114.769531 60.367188 C 114.566406 60.257812 114.351562 60.160156 114.136719 60.074219 C 113.898438 59.980469 113.644531 59.925781 113.386719 59.910156 C 112.570312 60.058594 111.765625 60.292969 110.996094 60.609375 C 110.949219 60.742188 110.871094 60.859375 110.765625 60.953125 C 110.613281 61.078125 110.414062 61.140625 110.21875 61.121094 C 110.019531 61.105469 109.835938 61.007812 109.710938 60.855469 C 109.070312 60.101562 108.011719 59.859375 107.105469 60.253906 C 106.203125 60.652344 105.664062 61.597656 105.777344 62.578125 C 105.816406 62.894531 105.652344 63.203125 105.371094 63.34375 C 105.085938 63.484375 104.742188 63.429688 104.515625 63.207031 C 104.21875 62.925781 103.824219 62.769531 103.417969 62.773438 Z M 110.90625 59.886719 Z M 110.90625 59.886719 Z M 110.90625 59.886719 "/>
<path style=" stroke:none;fill-rule:nonzero;fill:rgb(100%,78.823529%,69.019608%);fill-opacity:1;" d="M 112.773438 97.488281 L 112.773438 94.828125 L 117.359375 94.828125 L 117.359375 97.488281 "/>
<path style=" stroke:none;fill-rule:nonzero;fill:rgb(3.529412%,24.705882%,40.784314%);fill-opacity:1;" d="M 117.359375 98.238281 C 116.945312 98.238281 116.609375 97.902344 116.609375 97.488281 L 116.609375 95.578125 L 113.492188 95.578125 L 113.492188 97.488281 C 113.492188 97.902344 113.160156 98.238281 112.746094 98.238281 C 112.332031 98.238281 111.996094 97.902344 111.996094 97.488281 L 111.996094 94.828125 C 111.996094 94.414062 112.332031 94.078125 112.746094 94.078125 L 117.359375 94.078125 C 117.769531 94.078125 118.105469 94.414062 118.105469 94.828125 L 118.105469 97.488281 C 118.105469 97.902344 117.769531 98.238281 117.359375 98.238281 Z M 117.359375 98.238281 "/>
<path style=" stroke:none;fill-rule:nonzero;fill:rgb(100%,78.823529%,69.019608%);fill-opacity:1;" d="M 106.878906 82.8125 C 106.878906 80.671875 104.988281 78.9375 102.660156 78.9375 C 100.332031 78.9375 98.445312 80.671875 98.445312 82.8125 C 98.445312 84.953125 100.332031 86.6875 102.660156 86.6875 C 104.988281 86.6875 106.878906 84.953125 106.878906 82.8125 Z M 106.878906 82.8125 "/>
<path style=" stroke:none;fill-rule:nonzero;fill:rgb(3.529412%,24.705882%,40.784314%);fill-opacity:1;" d="M 102.660156 87.4375 C 100.15625 87.253906 98.253906 85.101562 98.375 82.582031 C 98.5 80.066406 100.601562 78.109375 103.113281 78.171875 C 105.625 78.234375 107.625 80.292969 107.625 82.8125 C 107.519531 85.460938 105.300781 87.527344 102.660156 87.4375 Z M 102.660156 79.6875 C 100.984375 79.867188 99.753906 81.347656 99.875 83.03125 C 99.996094 84.71875 101.421875 86.007812 103.109375 85.949219 C 104.792969 85.886719 106.128906 84.503906 106.128906 82.8125 C 106.023438 80.992188 104.476562 79.601562 102.660156 79.6875 Z M 102.660156 79.6875 "/>
<path style=" stroke:none;fill-rule:nonzero;fill:rgb(100%,78.823529%,69.019608%);fill-opacity:1;" d="M 131.46875 82.8125 C 131.46875 80.671875 129.582031 78.9375 127.253906 78.9375 C 124.925781 78.9375 123.039062 80.671875 123.039062 82.8125 C 123.039062 84.953125 124.925781 86.6875 127.253906 86.6875 C 129.582031 86.6875 131.46875 84.953125 131.46875 82.8125 Z M 131.46875 82.8125 "/>
<path style=" stroke:none;fill-rule:nonzero;fill:rgb(3.529412%,24.705882%,40.784314%);fill-opacity:1;" d="M 127.261719 87.4375 C 124.757812 87.253906 122.855469 85.101562 122.976562 82.582031 C 123.097656 80.066406 125.199219 78.109375 127.710938 78.171875 C 130.222656 78.234375 132.226562 80.292969 132.226562 82.8125 C 132.121094 85.460938 129.902344 87.527344 127.261719 87.4375 Z M 127.261719 79.6875 C 125.585938 79.867188 124.355469 81.347656 124.472656 83.03125 C 124.59375 84.71875 126.023438 86.007812 127.707031 85.949219 C 129.394531 85.886719 130.730469 84.503906 130.730469 82.8125 C 130.625 80.992188 129.078125 79.597656 127.261719 79.6875 Z M 127.261719 79.6875 "/>
<path style=" stroke:none;fill-rule:nonzero;fill:rgb(100%,78.823529%,69.019608%);fill-opacity:1;" d="M 115.113281 95.4375 C 107.652344 95.4375 101.601562 89.367188 101.601562 81.882812 C 101.601562 80.203125 101.1875 76.3125 102.527344 75.023438 C 102.960938 74.695312 103.445312 74.441406 103.960938 74.273438 C 105.367188 73.601562 106.402344 72.332031 106.78125 70.816406 C 108.410156 71.15625 110.097656 70.640625 111.265625 69.453125 C 112.429688 70.613281 114.09375 71.121094 115.707031 70.808594 C 117.292969 70.488281 118.765625 69.742188 119.964844 68.652344 C 119.765625 69.433594 120.21875 70.238281 120.992188 70.464844 C 122.484375 70.984375 123.761719 69.582031 125.175781 70.039062 C 126.304688 70.40625 127.328125 72.0625 127.792969 73.035156 C 129.046875 75.75 128.660156 78.957031 128.660156 81.867188 C 128.664062 85.46875 127.238281 88.925781 124.695312 91.472656 C 122.15625 94.015625 118.707031 95.445312 115.113281 95.4375 Z M 115.113281 95.4375 "/>
<path style=" stroke:none;fill-rule:nonzero;fill:rgb(3.529412%,24.705882%,40.784314%);fill-opacity:1;" d="M 115.113281 96.1875 C 107.242188 96.175781 100.859375 89.777344 100.851562 81.882812 C 100.851562 81.605469 100.851562 81.269531 100.851562 80.894531 C 100.777344 78.742188 100.679688 75.789062 102.027344 74.484375 C 102.410156 74.152344 102.851562 73.898438 103.328125 73.734375 L 103.671875 73.582031 C 104.871094 73.011719 105.75 71.929688 106.070312 70.636719 C 106.164062 70.242188 106.554688 69.992188 106.953125 70.074219 C 108.3125 70.34375 109.714844 69.910156 110.691406 68.921875 C 110.832031 68.773438 111.03125 68.691406 111.234375 68.695312 C 111.445312 68.699219 111.640625 68.789062 111.78125 68.945312 C 112.769531 69.910156 114.164062 70.332031 115.519531 70.066406 C 116.972656 69.765625 118.320312 69.074219 119.421875 68.074219 C 119.683594 67.855469 120.058594 67.84375 120.332031 68.042969 C 120.609375 68.242188 120.714844 68.601562 120.59375 68.921875 C 120.546875 69.03125 120.546875 69.15625 120.59375 69.265625 C 120.703125 69.492188 120.898438 69.664062 121.132812 69.753906 C 121.699219 69.867188 122.285156 69.792969 122.808594 69.542969 C 123.589844 69.191406 124.46875 69.109375 125.304688 69.320312 C 126.960938 69.859375 128.144531 72.273438 128.367188 72.75 C 129.460938 75.113281 129.390625 77.714844 129.332031 80.25 C 129.332031 80.808594 129.332031 81.363281 129.332031 81.914062 C 129.308594 89.777344 122.960938 96.152344 115.113281 96.1875 Z M 107.265625 71.628906 C 106.726562 73.082031 105.640625 74.269531 104.238281 74.925781 L 103.84375 75.097656 C 103.539062 75.203125 103.253906 75.359375 103.003906 75.5625 C 102.136719 76.402344 102.257812 79.3125 102.257812 80.808594 C 102.257812 81.199219 102.257812 81.558594 102.257812 81.84375 C 102.257812 88.917969 107.972656 94.648438 115.023438 94.648438 C 122.078125 94.648438 127.792969 88.917969 127.792969 81.84375 C 127.792969 81.28125 127.792969 80.71875 127.792969 80.144531 C 127.851562 77.796875 127.914062 75.375 126.960938 73.328125 C 126.445312 72.195312 125.535156 70.929688 124.796875 70.691406 C 124.265625 70.601562 123.71875 70.679688 123.234375 70.914062 C 122.402344 71.289062 121.46875 71.359375 120.59375 71.117188 C 120.023438 70.910156 119.546875 70.5 119.257812 69.964844 C 118.1875 70.71875 116.964844 71.230469 115.675781 71.460938 C 114.070312 71.757812 112.414062 71.363281 111.109375 70.375 C 110.019531 71.242188 108.65625 71.6875 107.265625 71.628906 Z M 107.265625 71.628906 "/>
<path style=" stroke:none;fill-rule:nonzero;fill:rgb(3.529412%,24.705882%,40.784314%);fill-opacity:1;" d="M 115.011719 84.875 C 114.582031 84.871094 114.15625 84.835938 113.730469 84.769531 C 113.320312 84.695312 113.042969 84.300781 113.117188 83.886719 C 113.1875 83.472656 113.582031 83.195312 113.992188 83.269531 C 114.460938 83.347656 114.933594 83.371094 115.40625 83.335938 C 115.175781 82.46875 114.839844 81.628906 114.414062 80.839844 C 114.222656 80.472656 114.367188 80.019531 114.734375 79.828125 C 115.101562 79.636719 115.554688 79.78125 115.742188 80.152344 C 116.445312 81.492188 117.199219 83.285156 116.8125 84.144531 C 116.683594 84.441406 116.425781 84.660156 116.117188 84.738281 C 115.753906 84.824219 115.382812 84.871094 115.011719 84.875 Z M 115.011719 84.875 "/>
<path style=" stroke:none;fill-rule:nonzero;fill:rgb(100%,78.823529%,69.019608%);fill-opacity:1;" d="M 99.363281 174.742188 L 106.644531 174.742188 L 107.929688 166.929688 L 113.546875 123.703125 L 103.601562 123.703125 L 100.238281 166.929688 Z M 99.363281 174.742188 "/>
<path style=" stroke:none;fill-rule:nonzero;fill:rgb(3.529412%,24.705882%,40.784314%);fill-opacity:1;" d="M 106.644531 175.488281 L 99.363281 175.488281 C 99.152344 175.488281 98.953125 175.394531 98.8125 175.234375 C 98.671875 175.078125 98.605469 174.867188 98.625 174.65625 L 99.5 166.847656 L 102.863281 123.644531 C 102.894531 123.253906 103.21875 122.953125 103.609375 122.957031 L 113.550781 122.957031 C 113.769531 122.953125 113.976562 123.046875 114.117188 123.207031 C 114.261719 123.371094 114.328125 123.585938 114.300781 123.800781 L 108.6875 167.027344 L 107.402344 174.859375 C 107.339844 175.230469 107.019531 175.5 106.644531 175.488281 Z M 100.203125 173.992188 L 106.019531 173.992188 L 107.199219 166.808594 L 112.691406 124.453125 L 104.296875 124.453125 L 100.988281 166.972656 Z M 100.203125 173.992188 "/>
<path style=" stroke:none;fill-rule:nonzero;fill:rgb(100%,78.823529%,69.019608%);fill-opacity:1;" d="M 115.886719 123.703125 L 121.902344 166.929688 L 122.992188 174.742188 L 130.722656 174.742188 L 129.816406 166.929688 L 124.816406 123.703125 Z M 115.886719 123.703125 "/>
<path style=" stroke:none;fill-rule:nonzero;fill:rgb(3.529412%,24.705882%,40.784314%);fill-opacity:1;" d="M 130.722656 175.488281 L 122.992188 175.488281 C 122.617188 175.492188 122.296875 175.21875 122.246094 174.84375 L 115.113281 123.808594 C 115.085938 123.59375 115.148438 123.375 115.292969 123.210938 C 115.4375 123.046875 115.640625 122.957031 115.855469 122.957031 L 124.832031 122.957031 C 125.210938 122.953125 125.535156 123.238281 125.578125 123.613281 L 131.484375 174.652344 C 131.507812 174.863281 131.441406 175.074219 131.296875 175.234375 C 131.152344 175.402344 130.941406 175.492188 130.722656 175.488281 Z M 123.644531 173.992188 L 129.886719 173.992188 L 124.152344 124.453125 L 116.746094 124.453125 Z M 123.644531 173.992188 "/>
<path style=" stroke:none;fill-rule:nonzero;fill:rgb(100%,100%,100%);fill-opacity:1;" d="M 106.644531 174.742188 L 106.09375 181.316406 L 90.992188 181.316406 L 99.363281 174.742188 Z M 106.644531 174.742188 "/>
<path style=" stroke:none;fill-rule:nonzero;fill:rgb(3.529412%,24.705882%,40.784314%);fill-opacity:1;" d="M 106.09375 182.0625 L 90.992188 182.0625 C 90.675781 182.0625 90.390625 181.859375 90.289062 181.554688 C 90.183594 181.253906 90.285156 180.917969 90.539062 180.722656 L 98.910156 174.148438 C 99.039062 174.046875 99.199219 173.992188 99.363281 173.992188 L 106.644531 173.992188 C 106.855469 173.988281 107.054688 174.078125 107.199219 174.230469 C 107.339844 174.386719 107.410156 174.589844 107.394531 174.800781 L 106.839844 181.375 C 106.808594 181.765625 106.484375 182.066406 106.09375 182.0625 Z M 93.160156 180.566406 L 105.398438 180.566406 L 105.824219 175.488281 L 99.613281 175.488281 Z M 93.160156 180.566406 "/>
<path style=" stroke:none;fill-rule:nonzero;fill:rgb(100%,100%,100%);fill-opacity:1;" d="M 122.621094 174.742188 L 122.621094 181.316406 L 138.078125 181.316406 L 130.722656 174.742188 Z M 122.621094 174.742188 "/>
<path style=" stroke:none;fill-rule:nonzero;fill:rgb(3.529412%,24.705882%,40.784314%);fill-opacity:1;" d="M 138.078125 182.0625 L 122.589844 182.0625 C 122.175781 182.0625 121.84375 181.730469 121.84375 181.316406 L 121.84375 174.742188 C 121.84375 174.328125 122.175781 173.992188 122.589844 173.992188 L 130.691406 173.992188 C 130.875 173.992188 131.050781 174.058594 131.1875 174.179688 L 138.542969 180.753906 C 138.773438 180.957031 138.855469 181.289062 138.746094 181.578125 C 138.636719 181.871094 138.359375 182.0625 138.046875 182.0625 Z M 123.367188 180.566406 L 136.113281 180.566406 L 130.4375 175.488281 L 123.335938 175.488281 Z M 123.367188 180.566406 "/>
<path style=" stroke:none;fill-rule:nonzero;fill:rgb(3.529412%,24.705882%,40.784314%);fill-opacity:1;" d="M 114.480469 90.75 C 112.207031 90.734375 110.042969 89.777344 108.5 88.105469 C 108.316406 87.898438 108.257812 87.609375 108.351562 87.347656 C 108.445312 87.085938 108.675781 86.902344 108.949219 86.859375 C 109.222656 86.820312 109.496094 86.9375 109.660156 87.160156 C 109.832031 87.371094 113.671875 91.867188 120.316406 87.023438 C 120.476562 86.90625 120.679688 86.859375 120.875 86.890625 C 121.070312 86.921875 121.246094 87.027344 121.363281 87.191406 C 121.480469 87.351562 121.53125 87.550781 121.5 87.75 C 121.46875 87.945312 121.359375 88.121094 121.199219 88.238281 C 118.597656 90.121094 116.347656 90.75 114.480469 90.75 Z M 114.480469 90.75 "/>
<path style=" stroke:none;fill-rule:nonzero;fill:rgb(3.529412%,24.705882%,40.784314%);fill-opacity:1;" d="M 111.273438 80.253906 C 110.859375 80.253906 110.523438 79.921875 110.523438 79.507812 C 110.5625 79.027344 110.328125 78.566406 109.917969 78.316406 C 109.507812 78.0625 108.992188 78.0625 108.582031 78.316406 C 108.175781 78.566406 107.941406 79.027344 107.976562 79.507812 C 107.976562 79.921875 107.640625 80.253906 107.230469 80.253906 C 106.816406 80.253906 106.480469 79.921875 106.480469 79.507812 C 106.429688 78.480469 106.945312 77.507812 107.824219 76.976562 C 108.703125 76.449219 109.800781 76.449219 110.679688 76.976562 C 111.558594 77.507812 112.074219 78.480469 112.019531 79.507812 C 112.019531 79.921875 111.6875 80.253906 111.273438 80.253906 Z M 111.273438 80.253906 "/>
<path style=" stroke:none;fill-rule:nonzero;fill:rgb(3.529412%,24.705882%,40.784314%);fill-opacity:1;" d="M 122.769531 80.253906 C 122.355469 80.253906 122.023438 79.921875 122.023438 79.507812 C 122.058594 79.027344 121.824219 78.566406 121.414062 78.316406 C 121.003906 78.0625 120.488281 78.0625 120.082031 78.316406 C 119.671875 78.566406 119.4375 79.027344 119.472656 79.507812 C 119.472656 79.921875 119.136719 80.253906 118.726562 80.253906 C 118.3125 80.253906 117.976562 79.921875 117.976562 79.507812 C 117.925781 78.480469 118.441406 77.507812 119.320312 76.976562 C 120.199219 76.449219 121.296875 76.449219 122.175781 76.976562 C 123.054688 77.507812 123.570312 78.480469 123.515625 79.507812 C 123.515625 79.921875 123.183594 80.253906 122.769531 80.253906 Z M 122.769531 80.253906 "/>
<path style=" stroke:none;fill-rule:nonzero;fill:rgb(3.529412%,24.705882%,40.784314%);fill-opacity:1;" d="M 127.015625 123.628906 L 130.050781 150.683594 L 116.847656 150.683594 L 113.648438 133.285156 L 112.019531 150.683594 L 98.945312 150.757812 L 102.660156 123.628906 Z M 127.015625 123.628906 "/>
<path style=" stroke:none;fill-rule:nonzero;fill:rgb(3.529412%,24.705882%,40.784314%);fill-opacity:1;" d="M 98.945312 151.507812 C 98.730469 151.511719 98.519531 151.417969 98.378906 151.253906 C 98.234375 151.089844 98.167969 150.871094 98.199219 150.65625 L 101.9375 123.523438 C 101.988281 123.152344 102.308594 122.875 102.683594 122.878906 L 127.039062 122.878906 C 127.421875 122.878906 127.742188 123.164062 127.785156 123.546875 L 130.8125 150.601562 C 130.835938 150.816406 130.769531 151.027344 130.625 151.1875 C 130.480469 151.34375 130.277344 151.433594 130.066406 151.433594 L 116.847656 151.433594 C 116.484375 151.441406 116.167969 151.179688 116.101562 150.820312 L 113.859375 138.71875 L 112.730469 150.757812 C 112.691406 151.144531 112.367188 151.4375 111.984375 151.433594 L 98.917969 151.507812 Z M 103.3125 124.378906 L 99.804688 150.003906 L 111.339844 149.941406 L 112.910156 133.210938 C 112.945312 132.839844 113.25 132.550781 113.621094 132.535156 C 113.984375 132.53125 114.300781 132.789062 114.367188 133.148438 L 117.453125 149.933594 L 129.191406 149.933594 L 126.328125 124.378906 Z M 103.3125 124.378906 "/>
<path style=" stroke:none;fill-rule:nonzero;fill:rgb(40.784314%,88.235294%,99.215686%);fill-opacity:1;" d="M 121.902344 166.929688 L 122.992188 174.742188 L 130.722656 174.742188 L 129.816406 166.929688 Z M 121.902344 166.929688 "/>
<path style=" stroke:none;fill-rule:nonzero;fill:rgb(3.529412%,24.705882%,40.784314%);fill-opacity:1;" d="M 130.722656 175.488281 L 122.992188 175.488281 C 122.617188 175.492188 122.296875 175.21875 122.246094 174.84375 L 121.15625 167.035156 C 121.125 166.816406 121.191406 166.597656 121.335938 166.433594 C 121.476562 166.273438 121.679688 166.179688 121.894531 166.179688 L 129.8125 166.179688 C 130.191406 166.175781 130.511719 166.460938 130.558594 166.839844 L 131.460938 174.652344 C 131.488281 174.863281 131.417969 175.074219 131.277344 175.234375 C 131.136719 175.394531 130.933594 175.488281 130.722656 175.488281 Z M 123.644531 173.992188 L 129.886719 173.992188 L 129.136719 167.679688 L 122.746094 167.679688 Z M 123.644531 173.992188 "/>
<path style=" stroke:none;fill-rule:nonzero;fill:rgb(40.784314%,88.235294%,99.215686%);fill-opacity:1;" d="M 99.363281 174.742188 L 106.644531 174.742188 L 107.929688 166.929688 L 100.238281 166.929688 Z M 99.363281 174.742188 "/>
<path style=" stroke:none;fill-rule:nonzero;fill:rgb(3.529412%,24.705882%,40.784314%);fill-opacity:1;" d="M 106.644531 175.488281 L 99.363281 175.488281 C 99.152344 175.488281 98.953125 175.394531 98.8125 175.234375 C 98.671875 175.078125 98.605469 174.867188 98.625 174.65625 L 99.5 166.847656 C 99.542969 166.464844 99.863281 166.175781 100.246094 166.179688 L 107.9375 166.179688 C 108.160156 166.175781 108.371094 166.273438 108.515625 166.441406 C 108.65625 166.609375 108.714844 166.832031 108.679688 167.050781 L 107.394531 174.859375 C 107.335938 175.226562 107.015625 175.496094 106.644531 175.488281 Z M 100.203125 173.992188 L 106.019531 173.992188 L 107.050781 167.679688 L 100.914062 167.679688 Z M 100.203125 173.992188 "/>
<path style=" stroke:none;fill-rule:nonzero;fill:rgb(3.529412%,24.705882%,40.784314%);fill-opacity:1;" d="M 77.964844 77.488281 C 77.628906 77.492188 77.296875 77.398438 77.007812 77.226562 C 76.191406 76.746094 75.871094 75.726562 76.140625 74.386719 C 76.441406 72.652344 77.269531 71.054688 78.511719 69.8125 C 79.8125 68.519531 81.617188 67.863281 83.445312 68.015625 C 85.351562 68.207031 86.984375 69.464844 87.660156 71.265625 C 87.722656 71.457031 87.710938 71.664062 87.621094 71.839844 C 87.53125 72.019531 87.378906 72.15625 87.1875 72.21875 C 86.796875 72.355469 86.375 72.144531 86.238281 71.753906 C 85.75 70.496094 84.589844 69.625 83.25 69.503906 C 81.863281 69.402344 80.496094 69.90625 79.511719 70.894531 C 78.5 71.914062 77.824219 73.222656 77.566406 74.640625 C 77.441406 75.261719 77.507812 75.773438 77.734375 75.898438 C 77.957031 76.027344 78.308594 75.898438 78.726562 75.652344 C 79.730469 74.941406 80.578125 74.027344 81.207031 72.96875 L 81.320312 72.796875 C 81.867188 71.757812 82.71875 70.914062 83.757812 70.375 C 84.007812 70.253906 84.304688 70.285156 84.527344 70.449219 C 84.75 70.617188 84.863281 70.894531 84.816406 71.171875 C 84.773438 71.445312 84.582031 71.671875 84.316406 71.761719 C 83.566406 72.195312 82.960938 72.84375 82.578125 73.621094 L 82.457031 73.792969 C 81.707031 75.035156 80.707031 76.101562 79.519531 76.925781 C 79.0625 77.253906 78.523438 77.449219 77.964844 77.488281 Z M 77.964844 77.488281 "/>
<path style=" stroke:none;fill-rule:nonzero;fill:rgb(3.529412%,24.705882%,40.784314%);fill-opacity:1;" d="M 140.328125 64.273438 C 135.375 64.273438 131.359375 60.246094 131.359375 55.277344 L 131.359375 52.152344 C 131.359375 51.738281 131.691406 51.402344 132.105469 51.402344 L 140.328125 51.402344 C 140.742188 51.402344 141.074219 51.738281 141.074219 52.152344 C 141.074219 52.566406 140.742188 52.902344 140.328125 52.902344 L 132.851562 52.902344 L 132.851562 55.277344 C 132.851562 59.417969 136.199219 62.773438 140.328125 62.773438 C 140.742188 62.773438 141.074219 63.109375 141.074219 63.523438 C 141.074219 63.9375 140.742188 64.273438 140.328125 64.273438 Z M 140.328125 64.273438 "/>
<path style=" stroke:none;fill-rule:nonzero;fill:rgb(3.529412%,24.705882%,40.784314%);fill-opacity:1;" d="M 163.558594 64.273438 C 163.148438 64.273438 162.8125 63.9375 162.8125 63.523438 C 162.8125 63.109375 163.148438 62.773438 163.558594 62.773438 C 167.6875 62.773438 171.035156 59.417969 171.035156 55.277344 L 171.035156 52.902344 L 163.558594 52.902344 C 163.148438 52.902344 162.8125 52.566406 162.8125 52.152344 C 162.8125 51.738281 163.148438 51.402344 163.558594 51.402344 L 171.78125 51.402344 C 172.195312 51.402344 172.53125 51.738281 172.53125 52.152344 L 172.53125 55.277344 C 172.53125 60.246094 168.515625 64.273438 163.558594 64.273438 Z M 163.558594 64.273438 "/>
<path style=" stroke:none;fill-rule:nonzero;fill:rgb(100%,73.72549%,5.490196%);fill-opacity:1;" d="M 148.933594 73.515625 L 155.097656 73.515625 L 155.097656 84.917969 L 148.933594 84.917969 Z M 148.933594 73.515625 "/>
<path style=" stroke:none;fill-rule:nonzero;fill:rgb(3.529412%,24.705882%,40.784314%);fill-opacity:1;" d="M 155.105469 85.667969 L 148.933594 85.667969 C 148.519531 85.667969 148.183594 85.332031 148.183594 84.917969 L 148.183594 73.515625 C 148.183594 73.101562 148.519531 72.765625 148.933594 72.765625 L 155.105469 72.765625 C 155.519531 72.765625 155.855469 73.101562 155.855469 73.515625 L 155.855469 84.917969 C 155.855469 85.332031 155.519531 85.667969 155.105469 85.667969 Z M 149.679688 84.167969 L 154.359375 84.167969 L 154.359375 74.265625 L 149.679688 74.265625 Z M 149.679688 84.167969 "/>
<path style=" stroke:none;fill-rule:nonzero;fill:rgb(100%,73.72549%,5.490196%);fill-opacity:1;" d="M 139.730469 46.515625 L 164.308594 46.515625 L 164.308594 65.300781 C 164.308594 72.105469 158.804688 77.625 152.019531 77.625 C 145.230469 77.625 139.730469 72.105469 139.730469 65.300781 Z M 139.730469 46.515625 "/>
<path style=" stroke:none;fill-rule:nonzero;fill:rgb(3.529412%,24.705882%,40.784314%);fill-opacity:1;" d="M 152.019531 78.375 C 144.824219 78.367188 138.992188 72.515625 138.984375 65.300781 L 138.984375 46.515625 C 138.984375 46.101562 139.316406 45.765625 139.730469 45.765625 L 164.308594 45.765625 C 164.722656 45.765625 165.054688 46.101562 165.054688 46.515625 L 165.054688 65.300781 C 165.046875 72.515625 159.214844 78.367188 152.019531 78.375 Z M 140.476562 47.265625 L 140.476562 65.300781 C 140.476562 71.691406 145.644531 76.875 152.019531 76.875 C 158.394531 76.875 163.558594 71.691406 163.558594 65.300781 L 163.558594 47.265625 Z M 140.476562 47.265625 "/>
<path style=" stroke:none;fill-rule:nonzero;fill:rgb(100%,73.72549%,5.490196%);fill-opacity:1;" d="M 147.257812 84.230469 L 156.78125 84.230469 C 157.652344 84.230469 158.359375 84.9375 158.359375 85.808594 L 158.359375 86.394531 C 158.359375 87.269531 157.652344 87.976562 156.78125 87.976562 L 147.257812 87.976562 C 146.386719 87.976562 145.679688 87.269531 145.679688 86.394531 L 145.679688 85.808594 C 145.679688 84.9375 146.386719 84.230469 147.257812 84.230469 Z M 147.257812 84.230469 "/>
<path style=" stroke:none;fill-rule:nonzero;fill:rgb(3.529412%,24.705882%,40.784314%);fill-opacity:1;" d="M 156.789062 88.734375 L 147.257812 88.734375 C 145.976562 88.730469 144.941406 87.6875 144.941406 86.402344 L 144.941406 85.808594 C 144.941406 84.527344 145.976562 83.484375 147.257812 83.480469 L 156.796875 83.480469 C 158.078125 83.484375 159.113281 84.527344 159.113281 85.808594 L 159.113281 86.402344 C 159.113281 87.691406 158.070312 88.734375 156.789062 88.734375 Z M 147.25 84.984375 C 146.792969 84.988281 146.429688 85.363281 146.429688 85.816406 L 146.429688 86.410156 C 146.429688 86.867188 146.792969 87.238281 147.25 87.242188 L 156.789062 87.242188 C 157.242188 87.238281 157.609375 86.867188 157.609375 86.410156 L 157.609375 85.816406 C 157.609375 85.363281 157.242188 84.988281 156.789062 84.984375 Z M 147.25 84.984375 "/>
<path style=" stroke:none;fill-rule:nonzero;fill:rgb(100%,78.823529%,69.019608%);fill-opacity:1;" d="M 142.128906 75.644531 C 142.714844 73.941406 143.546875 72.332031 144.597656 70.871094 C 144.710938 70.675781 144.890625 70.53125 145.105469 70.464844 C 145.386719 70.457031 145.632812 70.648438 145.695312 70.921875 C 145.757812 71.1875 145.757812 71.460938 145.695312 71.726562 L 144.550781 77.625 "/>
<path style=" stroke:none;fill-rule:nonzero;fill:rgb(3.529412%,24.705882%,40.784314%);fill-opacity:1;" d="M 144.523438 78.375 L 144.378906 78.375 C 143.976562 78.292969 143.710938 77.902344 143.789062 77.496094 L 144.902344 71.769531 C 144.035156 73.054688 143.339844 74.449219 142.839844 75.914062 C 142.707031 76.308594 142.277344 76.519531 141.886719 76.382812 C 141.496094 76.25 141.285156 75.820312 141.417969 75.429688 C 142.03125 73.652344 142.898438 71.976562 143.992188 70.449219 C 144.214844 70.089844 144.578125 69.835938 144.992188 69.746094 C 145.640625 69.679688 146.242188 70.09375 146.414062 70.726562 C 146.507812 71.109375 146.507812 71.507812 146.414062 71.890625 L 145.261719 77.765625 C 145.191406 78.121094 144.882812 78.378906 144.523438 78.375 Z M 144.523438 78.375 "/>
<path style=" stroke:none;fill-rule:nonzero;fill:rgb(88.627451%,51.372549%,38.431373%);fill-opacity:1;" d="M 162.550781 75.375 L 161.683594 71.917969 C 161.59375 71.574219 161.398438 71.171875 161.042969 71.171875 C 160.917969 71.1875 160.804688 71.242188 160.710938 71.328125 C 160.285156 71.796875 160.050781 72.410156 160.054688 73.042969 C 159.878906 74.542969 159.777344 76.070312 159.742188 77.625 "/>
<path style=" stroke:none;fill-rule:nonzero;fill:rgb(3.529412%,24.705882%,40.784314%);fill-opacity:1;" d="M 159.742188 78.375 C 159.328125 78.375 158.992188 78.039062 158.992188 77.625 C 159.03125 76.125 159.144531 74.519531 159.308594 72.984375 C 159.328125 72.160156 159.65625 71.375 160.226562 70.78125 C 160.433594 70.59375 160.695312 70.476562 160.972656 70.441406 C 161.226562 70.441406 162.066406 70.441406 162.394531 71.761719 L 163.261719 75.210938 C 163.363281 75.613281 163.121094 76.019531 162.71875 76.121094 C 162.320312 76.222656 161.914062 75.980469 161.8125 75.578125 L 160.972656 72.242188 C 160.867188 72.535156 160.804688 72.839844 160.78125 73.148438 C 160.617188 74.648438 160.511719 76.148438 160.472656 77.648438 C 160.460938 78.046875 160.140625 78.367188 159.742188 78.375 Z M 159.742188 78.375 "/>
<path style=" stroke:none;fill-rule:nonzero;fill:rgb(87.45098%,91.764706%,93.72549%);fill-opacity:1;" d="M 144.933594 103.605469 C 144.660156 103.605469 144.410156 103.457031 144.277344 103.214844 C 144.148438 102.976562 144.15625 102.683594 144.304688 102.453125 C 145.230469 100.953125 146.367188 99.402344 148.167969 99.027344 C 148.746094 98.933594 149.335938 98.917969 149.917969 98.980469 C 150.332031 99.019531 150.746094 99.019531 151.160156 98.980469 C 151.554688 98.914062 151.90625 98.683594 152.125 98.34375 C 152.191406 98.25 152.207031 98.128906 152.160156 98.023438 C 151.988281 97.644531 152.15625 97.199219 152.53125 97.027344 C 152.90625 96.855469 153.351562 97.023438 153.523438 97.398438 C 153.757812 97.933594 153.730469 98.550781 153.4375 99.058594 C 152.996094 99.808594 152.238281 100.324219 151.375 100.457031 C 150.863281 100.519531 150.34375 100.519531 149.828125 100.457031 C 149.378906 100.402344 148.921875 100.402344 148.46875 100.457031 C 147.242188 100.714844 146.359375 101.957031 145.566406 103.21875 C 145.441406 103.453125 145.199219 103.601562 144.933594 103.605469 Z M 144.933594 103.605469 "/>
<path style=" stroke:none;fill-rule:nonzero;fill:rgb(87.45098%,91.764706%,93.72549%);fill-opacity:1;" d="M 164.59375 129.917969 C 164.179688 129.917969 163.84375 129.582031 163.84375 129.167969 C 163.808594 127.148438 164.164062 125.140625 164.890625 123.253906 C 164.980469 122.996094 165.203125 122.804688 165.476562 122.757812 C 165.746094 122.714844 166.019531 122.820312 166.1875 123.039062 C 166.355469 123.257812 166.394531 123.550781 166.28125 123.800781 C 165.625 125.503906 165.304688 127.316406 165.339844 129.140625 C 165.339844 129.554688 165.003906 129.890625 164.59375 129.890625 Z M 164.59375 129.917969 "/>
<path style=" stroke:none;fill-rule:nonzero;fill:rgb(87.45098%,91.764706%,93.72549%);fill-opacity:1;" d="M 145.898438 134.328125 C 145.851562 134.335938 145.808594 134.335938 145.761719 134.328125 C 145.421875 134.257812 145.136719 134.019531 145.015625 133.691406 C 144.867188 133.3125 144.917969 132.886719 145.148438 132.558594 C 145.414062 132.234375 145.78125 132.015625 146.1875 131.9375 L 149.671875 130.960938 C 150.070312 130.851562 150.480469 131.085938 150.589844 131.484375 C 150.699219 131.886719 150.464844 132.296875 150.066406 132.40625 L 146.621094 133.367188 C 146.652344 133.484375 146.652344 133.609375 146.621094 133.726562 C 146.550781 134.074219 146.25 134.324219 145.898438 134.328125 Z M 145.898438 134.328125 "/>
<path style=" stroke:none;fill-rule:nonzero;fill:rgb(87.45098%,91.764706%,93.72549%);fill-opacity:1;" d="M 122.851562 50.53125 C 122.785156 50.539062 122.71875 50.539062 122.648438 50.53125 C 122.253906 50.417969 122.023438 50.007812 122.132812 49.609375 C 122.609375 48.003906 123.984375 46.828125 125.640625 46.613281 C 126.046875 46.5625 126.417969 46.855469 126.46875 47.265625 C 126.519531 47.671875 126.226562 48.046875 125.820312 48.097656 C 124.761719 48.253906 123.890625 49.007812 123.578125 50.03125 C 123.46875 50.335938 123.175781 50.539062 122.851562 50.53125 Z M 122.851562 50.53125 "/>
<path style=" stroke:none;fill-rule:nonzero;fill:rgb(87.45098%,91.764706%,93.72549%);fill-opacity:1;" d="M 95.132812 54.214844 C 94.871094 54.214844 94.625 54.074219 94.492188 53.847656 C 93.757812 52.605469 92.78125 51.527344 91.621094 50.675781 C 91.285156 50.429688 91.214844 49.960938 91.457031 49.625 C 91.699219 49.289062 92.167969 49.214844 92.503906 49.460938 C 93.824219 50.4375 94.9375 51.667969 95.777344 53.082031 C 95.988281 53.4375 95.871094 53.898438 95.515625 54.109375 C 95.398438 54.175781 95.269531 54.214844 95.132812 54.214844 Z M 95.132812 54.214844 "/>
<path style=" stroke:none;fill-rule:nonzero;fill:rgb(87.45098%,91.764706%,93.72549%);fill-opacity:1;" d="M 86.023438 124.246094 C 85.917969 124.242188 85.820312 124.222656 85.722656 124.183594 C 85.542969 124.105469 85.398438 123.953125 85.328125 123.769531 C 85.257812 123.582031 85.261719 123.378906 85.34375 123.195312 C 85.65625 122.46875 85.535156 121.625 85.027344 121.019531 C 84.523438 120.410156 83.71875 120.136719 82.949219 120.316406 C 82.539062 120.410156 82.128906 120.148438 82.035156 119.734375 C 81.941406 119.320312 82.199219 118.910156 82.613281 118.816406 C 83.933594 118.507812 85.316406 118.972656 86.183594 120.015625 C 87.050781 121.0625 87.253906 122.511719 86.710938 123.757812 C 86.601562 124.046875 86.328125 124.238281 86.023438 124.246094 Z M 86.023438 124.246094 "/>
<path style=" stroke:none;fill-rule:nonzero;fill:rgb(87.45098%,91.764706%,93.72549%);fill-opacity:1;" d="M 88.273438 140.773438 C 88.089844 140.777344 87.910156 140.710938 87.769531 140.585938 C 87.621094 140.453125 87.535156 140.265625 87.523438 140.066406 C 87.515625 139.867188 87.585938 139.671875 87.71875 139.523438 C 88.757812 138.417969 90.390625 138.113281 91.753906 138.773438 C 92.128906 138.953125 92.28125 139.40625 92.097656 139.777344 C 91.917969 140.148438 91.46875 140.304688 91.097656 140.121094 C 90.332031 139.785156 89.4375 139.957031 88.855469 140.558594 C 88.703125 140.710938 88.488281 140.789062 88.273438 140.773438 Z M 88.273438 140.773438 "/>
<path style=" stroke:none;fill-rule:nonzero;fill:rgb(87.45098%,91.764706%,93.72549%);fill-opacity:1;" d="M 157.722656 151.023438 C 157.484375 151.023438 157.257812 150.90625 157.117188 150.714844 C 156.175781 149.417969 154.964844 148.335938 153.566406 147.550781 C 153.207031 147.34375 153.078125 146.882812 153.285156 146.519531 C 153.492188 146.15625 153.953125 146.03125 154.3125 146.238281 C 155.898438 147.132812 157.269531 148.359375 158.34375 149.828125 C 158.460938 149.992188 158.507812 150.191406 158.476562 150.390625 C 158.445312 150.585938 158.339844 150.761719 158.179688 150.878906 C 158.046875 150.976562 157.886719 151.027344 157.722656 151.023438 Z M 157.722656 151.023438 "/>
<path style=" stroke:none;fill-rule:nonzero;fill:rgb(87.45098%,91.764706%,93.72549%);fill-opacity:1;" d="M 218.054688 82.878906 C 216.855469 82.839844 215.707031 82.414062 214.773438 81.664062 C 214.464844 81.402344 214.421875 80.941406 214.671875 80.625 C 214.925781 80.308594 215.382812 80.253906 215.707031 80.496094 C 216.386719 81.042969 217.226562 81.355469 218.097656 81.378906 C 218.511719 81.378906 218.84375 81.714844 218.84375 82.128906 C 218.84375 82.542969 218.511719 82.878906 218.097656 82.878906 Z M 218.054688 82.878906 "/>
<path style=" stroke:none;fill-rule:nonzero;fill:rgb(87.45098%,91.764706%,93.72549%);fill-opacity:1;" d="M 209.90625 94.730469 C 209.492188 94.789062 209.109375 94.5 209.054688 94.085938 C 208.996094 93.671875 209.285156 93.289062 209.695312 93.230469 L 213.621094 92.085938 C 214.015625 91.96875 214.429688 92.191406 214.546875 92.585938 C 214.605469 92.777344 214.585938 92.984375 214.488281 93.164062 C 214.394531 93.339844 214.230469 93.46875 214.039062 93.523438 L 210.121094 94.671875 C 210.054688 94.703125 209.980469 94.722656 209.90625 94.730469 Z M 209.90625 94.730469 "/>
<path style=" stroke:none;fill-rule:nonzero;fill:rgb(87.45098%,91.764706%,93.72549%);fill-opacity:1;" d="M 188.042969 50.246094 C 187.878906 50.25 187.722656 50.199219 187.59375 50.105469 C 186.714844 49.503906 186.046875 48.640625 185.679688 47.640625 C 185.183594 47.539062 184.726562 47.300781 184.363281 46.949219 C 183.8125 46.449219 183.503906 45.738281 183.519531 44.992188 C 183.519531 44.578125 183.851562 44.242188 184.265625 44.242188 C 184.679688 44.242188 185.015625 44.578125 185.015625 44.992188 C 185.019531 45.304688 185.152344 45.601562 185.386719 45.808594 C 185.453125 45.871094 185.527344 45.925781 185.605469 45.976562 C 185.714844 45.519531 185.925781 45.097656 186.226562 44.738281 C 186.644531 44.222656 187.261719 43.914062 187.921875 43.882812 C 188.28125 43.875 188.597656 44.128906 188.667969 44.484375 C 188.808594 45.210938 188.628906 45.960938 188.183594 46.550781 C 187.925781 46.90625 187.589844 47.191406 187.195312 47.382812 C 187.5 47.96875 187.9375 48.46875 188.476562 48.847656 C 188.632812 48.964844 188.742188 49.140625 188.769531 49.335938 C 188.800781 49.535156 188.75 49.734375 188.632812 49.894531 C 188.503906 50.101562 188.285156 50.234375 188.042969 50.246094 Z M 188.042969 50.246094 "/>
<path style=" stroke:none;fill-rule:nonzero;fill:rgb(87.45098%,91.764706%,93.72549%);fill-opacity:1;" d="M 214.144531 57.265625 C 214.019531 57.261719 213.902344 57.234375 213.792969 57.175781 C 212.820312 56.679688 211.707031 56.539062 210.644531 56.777344 C 210.25 56.855469 209.863281 56.601562 209.773438 56.207031 C 209.6875 55.8125 209.925781 55.417969 210.316406 55.316406 C 211.726562 55 213.203125 55.191406 214.488281 55.855469 C 214.851562 56.046875 214.992188 56.5 214.800781 56.867188 C 214.671875 57.109375 214.417969 57.261719 214.144531 57.265625 Z M 214.144531 57.265625 "/>
<path style=" stroke:none;fill-rule:nonzero;fill:rgb(87.45098%,91.764706%,93.72549%);fill-opacity:1;" d="M 213.835938 131.882812 C 213.539062 131.882812 213.273438 131.707031 213.152344 131.433594 C 213.035156 131.160156 213.089844 130.84375 213.292969 130.625 C 213.996094 129.871094 214.878906 129.316406 215.863281 129.011719 C 216.121094 128.921875 216.40625 128.984375 216.609375 129.167969 C 216.808594 129.351562 216.894531 129.628906 216.832031 129.894531 C 216.769531 130.160156 216.566406 130.371094 216.304688 130.445312 C 215.570312 130.671875 214.90625 131.085938 214.382812 131.652344 C 214.242188 131.800781 214.042969 131.882812 213.835938 131.882812 Z M 213.835938 131.882812 "/>
<path style=" stroke:none;fill-rule:nonzero;fill:rgb(87.45098%,91.764706%,93.72549%);fill-opacity:1;" d="M 217.523438 152.972656 C 217.4375 152.96875 217.355469 152.953125 217.277344 152.925781 C 215.695312 152.359375 214.359375 151.265625 213.484375 149.828125 C 213.34375 149.484375 213.476562 149.085938 213.800781 148.898438 C 214.121094 148.707031 214.535156 148.785156 214.765625 149.082031 C 215.457031 150.214844 216.511719 151.085938 217.753906 151.546875 C 218.09375 151.671875 218.296875 152.023438 218.234375 152.378906 C 218.171875 152.738281 217.863281 153 217.5 153 Z M 217.523438 152.972656 "/>
<path style=" stroke:none;fill-rule:nonzero;fill:rgb(87.45098%,91.764706%,93.72549%);fill-opacity:1;" d="M 218.34375 165.675781 C 218.097656 165.675781 217.863281 165.554688 217.722656 165.347656 C 217.613281 165.183594 217.570312 164.980469 217.609375 164.785156 C 217.648438 164.589844 217.761719 164.417969 217.925781 164.304688 L 220.453125 162.617188 C 220.675781 162.453125 220.96875 162.421875 221.21875 162.539062 C 221.46875 162.65625 221.636719 162.90625 221.648438 163.183594 C 221.660156 163.460938 221.519531 163.722656 221.28125 163.863281 L 218.757812 165.550781 C 218.636719 165.632812 218.492188 165.679688 218.34375 165.675781 Z M 218.34375 165.675781 "/>
<path style=" stroke:none;fill-rule:nonzero;fill:rgb(87.45098%,91.764706%,93.72549%);fill-opacity:1;" d="M 187.4375 170.085938 C 187.023438 170.152344 186.632812 169.875 186.566406 169.460938 C 186.496094 169.046875 186.777344 168.652344 187.1875 168.585938 L 190.925781 167.3125 C 191.320312 167.179688 191.742188 167.390625 191.875 167.785156 C 192.007812 168.175781 191.796875 168.601562 191.40625 168.734375 L 187.710938 170.003906 C 187.625 170.046875 187.53125 170.074219 187.4375 170.085938 Z M 187.4375 170.085938 "/>
<path style=" stroke:none;fill-rule:nonzero;fill:rgb(87.45098%,91.764706%,93.72549%);fill-opacity:1;" d="M 161.929688 110.167969 L 161.847656 110.167969 C 160.429688 110.015625 159.058594 109.570312 157.820312 108.863281 C 157.464844 108.65625 157.339844 108.199219 157.542969 107.84375 C 157.746094 107.484375 158.199219 107.355469 158.558594 107.558594 C 159.621094 108.160156 160.792969 108.542969 162.003906 108.675781 C 162.417969 108.695312 162.738281 109.046875 162.714844 109.460938 C 162.695312 109.875 162.34375 110.195312 161.929688 110.175781 Z M 161.929688 110.167969 "/>
<path style=" stroke:none;fill-rule:nonzero;fill:rgb(87.45098%,91.764706%,93.72549%);fill-opacity:1;" d="M 139.191406 123.449219 L 139.15625 123.449219 C 137.796875 123.371094 136.519531 122.789062 135.566406 121.816406 C 135.277344 121.519531 135.28125 121.042969 135.578125 120.753906 C 135.871094 120.464844 136.347656 120.46875 136.636719 120.765625 C 137.320312 121.472656 138.246094 121.894531 139.230469 121.949219 C 139.640625 121.949219 139.976562 122.285156 139.976562 122.699219 C 139.976562 123.113281 139.640625 123.449219 139.230469 123.449219 Z M 139.191406 123.449219 "/>
<path style=" stroke:none;fill-rule:nonzero;fill:rgb(87.45098%,91.764706%,93.72549%);fill-opacity:1;" d="M 107.230469 48.53125 C 106.949219 48.527344 106.671875 48.460938 106.421875 48.328125 C 105.792969 48.066406 105.46875 47.367188 105.675781 46.714844 C 105.746094 46.511719 105.863281 46.324219 106.019531 46.167969 C 105.710938 46.160156 105.402344 46.171875 105.097656 46.207031 C 104.6875 46.238281 104.324219 45.929688 104.292969 45.515625 C 104.257812 45.101562 104.566406 44.742188 104.980469 44.707031 C 105.839844 44.5625 106.71875 44.671875 107.519531 45.015625 L 107.675781 45.105469 C 109.097656 44.5 110.679688 44.402344 112.164062 44.828125 C 112.558594 44.941406 112.789062 45.351562 112.679688 45.75 C 112.625 45.941406 112.496094 46.105469 112.320312 46.203125 C 112.148438 46.300781 111.941406 46.324219 111.75 46.265625 C 110.722656 45.976562 109.628906 46.007812 108.621094 46.355469 L 108.664062 46.5 C 108.789062 46.996094 108.691406 47.519531 108.394531 47.9375 C 108.121094 48.3125 107.6875 48.53125 107.230469 48.53125 Z M 107.230469 48.53125 "/>
<path style=" stroke:none;fill-rule:nonzero;fill:rgb(87.45098%,91.764706%,93.72549%);fill-opacity:1;" d="M 148.003906 153.5625 C 147.761719 153.566406 147.535156 153.453125 147.390625 153.253906 C 146.984375 152.722656 146.359375 152.402344 145.6875 152.378906 C 145.019531 152.320312 144.363281 152.550781 143.878906 153.015625 C 143.59375 153.320312 143.117188 153.339844 142.808594 153.054688 C 142.503906 152.769531 142.488281 152.289062 142.773438 151.980469 C 143.566406 151.199219 144.65625 150.796875 145.765625 150.871094 C 146.878906 150.945312 147.902344 151.492188 148.589844 152.371094 C 148.703125 152.53125 148.753906 152.734375 148.71875 152.933594 C 148.6875 153.128906 148.578125 153.304688 148.417969 153.421875 C 148.296875 153.507812 148.152344 153.558594 148.003906 153.5625 Z M 148.003906 153.5625 "/>
<path style=" stroke:none;fill-rule:nonzero;fill:rgb(87.45098%,91.764706%,93.72549%);fill-opacity:1;" d="M 156.453125 174.246094 C 156.167969 174.242188 155.910156 174.082031 155.785156 173.824219 C 155.601562 173.457031 155.753906 173.003906 156.121094 172.820312 C 157.660156 172.078125 159.453125 172.078125 160.988281 172.820312 C 161.328125 173.015625 161.464844 173.441406 161.292969 173.796875 C 161.125 174.152344 160.710938 174.3125 160.347656 174.171875 C 159.21875 173.632812 157.914062 173.632812 156.789062 174.171875 C 156.683594 174.222656 156.566406 174.246094 156.453125 174.246094 Z M 156.453125 174.246094 "/>
<path style=" stroke:none;fill-rule:nonzero;fill:rgb(87.45098%,91.764706%,93.72549%);fill-opacity:1;" d="M 89.183594 167.09375 C 88.84375 167.109375 88.539062 166.894531 88.4375 166.570312 C 88.167969 165.847656 87.550781 165.3125 86.800781 165.152344 C 86.664062 165.117188 86.523438 165.089844 86.382812 165.078125 C 86.351562 165.203125 86.308594 165.324219 86.253906 165.4375 C 85.898438 166.070312 85.171875 166.390625 84.46875 166.222656 C 83.878906 166.121094 83.449219 165.601562 83.457031 165.003906 C 83.460938 164.800781 83.542969 164.609375 83.691406 164.46875 C 84 164.175781 84.363281 163.945312 84.757812 163.789062 L 84.648438 163.539062 C 83.945312 162.125 83.277344 161.457031 82.597656 161.515625 C 82.398438 161.535156 82.203125 161.46875 82.050781 161.339844 C 81.902344 161.210938 81.808594 161.027344 81.792969 160.828125 C 81.761719 160.414062 82.070312 160.058594 82.480469 160.023438 C 84.496094 159.875 85.617188 162.132812 85.984375 162.882812 C 86.09375 163.09375 86.191406 163.308594 86.277344 163.535156 C 86.59375 163.546875 86.910156 163.597656 87.21875 163.675781 C 88.464844 163.964844 89.480469 164.875 89.902344 166.089844 C 89.960938 166.28125 89.945312 166.484375 89.855469 166.664062 C 89.761719 166.839844 89.605469 166.972656 89.414062 167.035156 C 89.34375 167.066406 89.265625 167.085938 89.183594 167.09375 Z M 89.183594 167.09375 "/>
</g>
</svg>
