<svg xmlns="http://www.w3.org/2000/svg" width="137.131" height="138.469" viewBox="0 0 137.131 138.469">
  <path id="Loud-Speaker-Icon-SVG-03lfd" d="M115.779,0C113,0,110.37,1.459,107.953,4.092a2.133,2.133,0,0,0-.309.216c-.241.241-24.226,23.757-53.089,28.35H21.686c-3.7,0-6.788,4.1-8.766,11.523a.3.3,0,0,1-.173.192,18.931,18.931,0,0,0,.006,35.786.3.3,0,0,1,.173.192c1.972,7.412,5.057,11.523,8.76,11.523h2.1v34.946c0,5.527,3.74,10.744,9.2,11.535a10.822,10.822,0,0,0,12.4-10.682v-6.843h4.426a6.59,6.59,0,0,0,6.59-6.584v-3.61a6.6,6.6,0,0,0-6.6-6.6H45.69a.293.293,0,0,1-.3-.3V92.164a.292.292,0,0,1,.3-.291H54.56c28.819,4.587,52.842,28.109,53.083,28.35a2.838,2.838,0,0,0,.315.216c2.417,2.633,5.051,4.092,7.82,4.092,13.866,0,21.352-32.083,21.352-62.263S129.644,0,115.779,0M26.86,71.189a2.107,2.107,0,0,1-1.533,2.547,2.389,2.389,0,0,1-.5.056A2.085,2.085,0,0,1,22.792,72.2a42.216,42.216,0,0,1-1.107-9.928,42.193,42.193,0,0,1,1.107-9.934,2.095,2.095,0,1,1,4.068,1,38.38,38.38,0,0,0-.977,8.933,38.271,38.271,0,0,0,.977,8.92m6.88-18.854a2.1,2.1,0,1,1,4.074,1,37.959,37.959,0,0,0-.983,8.933,37.927,37.927,0,0,0,.983,8.92,2.107,2.107,0,0,1-1.539,2.541,2.018,2.018,0,0,1-.5.062A2.09,2.09,0,0,1,33.74,72.2a42.14,42.14,0,0,1-1.107-9.928,42.156,42.156,0,0,1,1.107-9.934m64.884,9.934c0-5.743.26-11.405.779-16.876.3.043.587.105.884.161.185.037.383.074.569.124.451.105.884.235,1.317.377.068.025.142.043.21.062.5.179.983.371,1.459.587.155.074.3.155.451.229.315.148.631.309.94.482.179.105.352.216.525.328.266.161.532.328.785.507.185.117.352.26.525.383.235.185.476.365.7.556.173.148.34.3.507.451.216.2.42.389.624.6.167.161.321.328.476.495.192.21.383.427.563.649.148.173.291.359.433.55.167.223.34.451.5.686.13.192.253.383.383.581.148.241.291.488.433.742.111.2.223.4.334.606.124.266.247.525.365.8.093.21.179.42.266.631.117.284.21.569.3.859.074.2.148.42.21.637.087.3.155.612.229.915.049.223.105.42.148.631.062.352.111.7.155,1.063.025.179.056.359.074.538.049.544.08,1.094.08,1.651s-.031,1.1-.08,1.644c-.019.173-.049.359-.074.532-.043.359-.093.717-.155,1.063-.043.21-.1.414-.142.624-.08.309-.148.624-.235.927-.062.216-.136.42-.21.631-.093.291-.185.581-.3.859-.087.21-.173.414-.266.631-.117.266-.241.538-.371.8-.105.21-.216.408-.328.606-.142.253-.284.5-.439.748-.124.192-.247.389-.377.575-.161.235-.334.47-.507.7-.136.185-.278.365-.42.538-.185.223-.377.445-.575.655-.148.161-.3.328-.464.495-.21.2-.42.4-.637.6-.161.148-.328.3-.495.451-.229.185-.47.371-.711.556-.173.117-.334.26-.519.383-.26.173-.525.346-.8.507-.167.111-.334.223-.513.328-.309.167-.631.328-.946.488-.155.068-.291.148-.445.216-.476.21-.958.414-1.459.587-.068.025-.136.043-.2.062-.439.142-.872.278-1.323.383-.185.049-.383.074-.563.117-.3.056-.593.117-.89.161-.519-5.465-.779-11.133-.779-16.864m17.154,58.066c-5.78,0-12.994-12.71-15.924-37.01a17.617,17.617,0,0,0,1.923-.377l.037-.006a16.273,16.273,0,0,0,1.873-.55c.21-.068.414-.155.618-.241.408-.148.816-.3,1.212-.482.235-.1.47-.229.7-.34.346-.173.692-.346,1.032-.538.241-.136.476-.291.711-.439.315-.192.624-.377.927-.587.235-.167.464-.346.692-.513.284-.223.569-.433.841-.661.229-.185.445-.383.655-.581.26-.235.519-.476.767-.723.2-.2.408-.42.6-.637.241-.26.47-.519.7-.785.185-.229.365-.457.55-.7.21-.278.408-.563.612-.847.167-.241.328-.482.488-.736.185-.3.365-.606.538-.921.142-.253.284-.513.414-.773.161-.321.315-.649.457-.977.117-.266.241-.525.346-.8.136-.352.253-.7.371-1.063.093-.266.185-.525.266-.8.111-.377.2-.773.284-1.156.062-.26.13-.513.185-.779.08-.445.142-.884.2-1.329.025-.223.068-.445.087-.668.068-.68.105-1.366.105-2.052a20.487,20.487,0,0,0-.105-2.059c-.019-.229-.062-.445-.087-.674-.056-.439-.117-.89-.2-1.329-.056-.266-.124-.519-.185-.785-.087-.383-.173-.773-.284-1.144-.08-.272-.173-.544-.266-.81-.117-.352-.235-.7-.371-1.051-.105-.272-.229-.532-.352-.8-.142-.34-.291-.661-.445-.977q-.2-.4-.427-.779c-.173-.309-.346-.612-.532-.915-.161-.253-.321-.495-.488-.742-.2-.291-.4-.569-.612-.841-.179-.235-.365-.47-.556-.7-.223-.272-.445-.532-.686-.785-.2-.216-.4-.433-.612-.643-.241-.247-.495-.482-.754-.717-.216-.2-.439-.4-.668-.581-.266-.229-.544-.445-.828-.661-.235-.173-.457-.346-.7-.519-.3-.2-.606-.389-.915-.581-.241-.155-.482-.3-.729-.451-.334-.185-.674-.346-1.02-.525-.241-.111-.47-.247-.711-.346-.4-.173-.8-.328-1.205-.482-.21-.08-.414-.179-.624-.247-.612-.21-1.236-.389-1.867-.544l-.043-.012c-.624-.155-1.267-.272-1.923-.371,2.93-24.307,10.144-37.01,15.924-37.01,8.111,0,17.148,23.849,17.148,58.078s-9.038,58.066-17.148,58.066"/>
</svg>
